<?xml version="1.0"?>
<svg xmlns="http://www.w3.org/2000/svg" xmlns:xlink="http://www.w3.org/1999/xlink" class="" id="Layer_1" style="enable-background:new 0 0 507.9 507.9;" transform="" viewBox="0 0 507.9 507.9" x="0px" y="0px" width="512px" height="512px" version="1.1" xml:space="preserve"><g transform="matrix(-1 -0 -0 -1 507.9 507.9)"><g>
	<g>
		<path class="active-path" d="M 445.299 73.5 h -74.8 V 14.1 c 0 -7.8 -6.3 -14.1 -14.1 -14.1 h -293.7 c -7.8 0 -14.1 6.3 -14.1 14.1 v 390.8 c 0 7.8 6.3 14.1 14.1 14.1 h 59.3 v 74.8 c 0 7.8 6.3 14.1 14.1 14.1 h 213.3 c 3.7 0 7.3 -1.5 10 -4.1 l 95.8 -95.8 c 2.6 -2.6 4.1 -6.2 4.1 -10 V 87.6 C 459.399 79.8 453.099 73.5 445.299 73.5 Z M 121.999 87.6 v 303.2 h -45.2 V 28.2 h 265.5 v 45.3 h -206.1 C 128.399 73.5 121.999 79.8 121.999 87.6 Z M 363.599 459.8 v -47.7 h 47.7 L 363.599 459.8 Z M 431.199 383.9 h -81.7 c -7.8 0 -14.1 6.3 -14.1 14.1 v 81.7 h -185.1 v -378 h 280.9 V 383.9 Z" data-original="#000000" data-old_color="#3500FF" fill="#1B0982"/>
	</g>
</g><g>
	<g>
		<path class="active-path" d="M 385.199 151 h -188.9 c -7.8 0 -14.1 6.3 -14.1 14.1 c 0 7.8 6.3 14.1 14.1 14.1 h 188.9 c 7.8 0 14.1 -6.3 14.1 -14.1 S 392.999 151 385.199 151 Z" data-original="#000000" data-old_color="#3500FF" fill="#1B0982"/>
	</g>
</g><g>
	<g>
		<path class="active-path" d="M 385.199 229.9 h -188.9 c -7.8 0 -14.1 6.3 -14.1 14.1 s 6.3 14.1 14.1 14.1 h 188.9 c 7.8 0 14.1 -6.3 14.1 -14.1 S 392.999 229.9 385.199 229.9 Z" data-original="#000000" data-old_color="#3500FF" fill="#1B0982"/>
	</g>
</g><g>
	<g>
		<path class="active-path" d="M 385.199 308.7 h -188.9 c -7.8 0 -14.1 6.3 -14.1 14.1 c 0 7.8 6.3 14.1 14.1 14.1 h 188.9 c 7.8 0 14.1 -6.3 14.1 -14.1 S 392.999 308.7 385.199 308.7 Z" data-original="#000000" data-old_color="#3500FF" fill="#1B0982"/>
	</g>
</g><g>
	<g>
		<path class="active-path" d="M 283.199 387.5 h -86.9 c -7.8 0 -14.1 6.3 -14.1 14.1 s 6.3 14.1 14.1 14.1 h 86.9 c 7.8 0 14.1 -6.3 14.1 -14.1 C 297.299 393.8 290.999 387.5 283.199 387.5 Z" data-original="#000000" data-old_color="#3500FF" fill="#1B0982"/>
	</g>
</g></g> </svg>
