<?xml version="1.0"?>
<svg xmlns="http://www.w3.org/2000/svg" xmlns:xlink="http://www.w3.org/1999/xlink" class="" id="Capa_1" style="enable-background:new 0 0 512 512;" viewBox="0 0 512 512" x="0px" y="0px" width="512px" height="512px" version="1.1" xml:space="preserve"><g><path class="active-path" style="fill:#005C49" d="M 448 96 h -64 c -11.767 -0.035 -21.298 -9.566 -21.333 -21.333 v -64 L 448 96 Z" data-original="#aac4da" data-old_color="#005c49"/><path class="" style="fill:#009844" d="M 448 96 v 384 c -0.035 11.768 -9.566 21.298 -21.333 21.333 H 85.333 C 73.566 501.298 64.035 491.768 64 480 V 32 c 0.035 -11.767 9.566 -21.298 21.333 -21.333 h 277.333 v 64 C 362.702 86.434 372.233 95.965 384 96 H 448 Z" data-original="#d9eef7" data-old_color="#005C49"/><path class="" style="fill:#F2F2F2" d="M 138.667 170.667 h 234.667 c 5.891 0 10.667 4.776 10.667 10.667 v 128 c 0 5.891 -4.776 10.667 -10.667 10.667 H 138.667 c -5.891 0 -10.667 -4.776 -10.667 -10.667 v -128 C 128 175.442 132.776 170.667 138.667 170.667 Z" data-original="#f2f2f2"/><g>
	<path class="" style="fill:#4C5B66" d="M 117.333 64 H 224 v 21.333 H 117.333 V 64 Z" data-original="#4c5b66"/>
	<path class="" style="fill:#4C5B66" d="M 117.333 106.667 h 21.333 V 128 h -21.333 V 106.667 Z" data-original="#4c5b66"/>
	<path class="" style="fill:#4C5B66" d="M 160 106.667 h 21.333 V 128 H 160 V 106.667 Z" data-original="#4c5b66"/>
	<path class="" style="fill:#4C5B66" d="M 455.541 88.459 L 370.208 3.125 c -2 -2.001 -4.713 -3.125 -7.541 -3.125 H 85.333 c -17.673 0 -32 14.327 -32 32 l 0 0 v 448 c 0 17.673 14.327 32 32 32 h 341.333 c 17.673 0 32 -14.327 32 -32 V 96 C 458.666 93.171 457.542 90.459 455.541 88.459 Z M 437.333 480 c 0 5.891 -4.776 10.667 -10.667 10.667 H 85.333 c -5.891 0 -10.667 -4.776 -10.667 -10.667 V 32 c 0 -5.891 4.776 -10.667 10.667 -10.667 H 352 v 53.333 c 0 17.673 14.327 32 32 32 h 21.333 V 85.333 H 384 c -5.891 0 -10.667 -4.776 -10.667 -10.667 V 36.416 l 64 64 V 480 Z" data-original="#4c5b66"/>
	<path class="" style="fill:#4C5B66" d="M 373.333 362.667 h 21.333 V 384 h -21.333 V 362.667 Z" data-original="#4c5b66"/>
	<path class="" style="fill:#4C5B66" d="M 330.667 362.667 H 352 V 384 h -21.333 V 362.667 Z" data-original="#4c5b66"/>
	<path class="" style="fill:#4C5B66" d="M 117.333 362.667 H 288 V 384 H 117.333 V 362.667 Z" data-original="#4c5b66"/>
	<path class="" style="fill:#4C5B66" d="M 117.333 416 h 277.333 v 21.333 H 117.333 V 416 Z" data-original="#4c5b66"/>
	<path class="" style="fill:#4C5B66" d="M 373.333 160 H 138.667 c -11.782 0 -21.333 9.551 -21.333 21.333 v 128 c 0 11.782 9.551 21.333 21.333 21.333 h 234.667 c 11.782 0 21.333 -9.551 21.333 -21.333 v -128 C 394.667 169.551 385.115 160 373.333 160 Z M 373.333 309.333 H 138.667 v -128 h 234.667 V 309.333 Z" data-original="#4c5b66"/>
</g></g> </svg>
