<?xml version="1.0"?>
<svg xmlns="http://www.w3.org/2000/svg" xmlns:xlink="http://www.w3.org/1999/xlink" class="" id="Capa_1" style="enable-background:new 0 0 57 57;" viewBox="0 0 57 57" x="0px" y="0px" width="512px" height="512px" version="1.1" xml:space="preserve"><g><g>
	<path class="active-path" d="M 48.95 38.551 c -0.391 -0.391 -1.023 -0.391 -1.414 0 L 44 42.086 l -3.536 -3.535 c -0.391 -0.391 -1.023 -0.391 -1.414 0 s -0.391 1.023 0 1.414 l 3.536 3.535 l -3.536 3.535 c -0.391 0.391 -0.391 1.023 0 1.414 c 0.195 0.195 0.451 0.293 0.707 0.293 s 0.512 -0.098 0.707 -0.293 L 44 44.914 l 3.536 3.535 c 0.195 0.195 0.451 0.293 0.707 0.293 s 0.512 -0.098 0.707 -0.293 c 0.391 -0.391 0.391 -1.023 0 -1.414 L 45.414 43.5 l 3.536 -3.535 C 49.34 39.574 49.34 38.941 48.95 38.551 Z" data-original="#000000" data-old_color="#CE3902" fill="#CE3800"/>
	<path class="active-path" d="M 44 30.5 c -7.168 0 -13 5.832 -13 13 s 5.832 13 13 13 s 13 -5.832 13 -13 S 51.168 30.5 44 30.5 Z M 44 54.5 c -6.065 0 -11 -4.935 -11 -11 s 4.935 -11 11 -11 s 11 4.935 11 11 S 50.065 54.5 44 54.5 Z" data-original="#000000" data-old_color="#CE3902" fill="#CE3800"/>
	<path class="active-path" d="M 27 43.5 c -0.552 0 -1 -0.447 -1 -1 s 0.448 -1 1 -1 h 1.139 c 0.754 -6.002 4.84 -10.968 10.346 -13 H 27 c -0.552 0 -1 -0.447 -1 -1 s 0.448 -1 1 -1 h 18 c 0.552 0 1 0.447 1 1 c 0 0.048 -0.021 0.089 -0.027 0.135 c 3.014 0.373 5.77 1.582 8.027 3.395 V 12.676 C 54 5.962 48.538 0.5 41.824 0.5 H 12.176 C 5.462 0.5 0 5.962 0 12.676 v 29.648 C 0 49.038 5.462 54.5 12.176 54.5 h 20.236 C 29.685 51.629 28 47.762 28 43.5 H 27 Z M 27 12.5 h 18 c 0.552 0 1 0.447 1 1 s -0.448 1 -1 1 H 27 c -0.552 0 -1 -0.447 -1 -1 S 26.448 12.5 27 12.5 Z M 20.688 38.15 l -6.857 7.999 c -0.197 0.23 -0.477 0.35 -0.76 0.35 c -0.209 0 -0.42 -0.065 -0.6 -0.2 L 7.9 42.87 c -0.442 -0.331 -0.531 -0.958 -0.2 -1.399 c 0.332 -0.442 0.958 -0.53 1.4 -0.2 l 3.822 2.866 l 6.248 -7.287 c 0.359 -0.42 0.992 -0.468 1.41 -0.108 C 20.999 37.101 21.047 37.731 20.688 38.15 Z M 20.688 23.15 l -6.857 8 c -0.197 0.23 -0.477 0.35 -0.76 0.35 c -0.209 0 -0.42 -0.065 -0.6 -0.2 L 7.9 27.871 c -0.442 -0.331 -0.531 -0.958 -0.2 -1.399 c 0.332 -0.442 0.958 -0.531 1.4 -0.2 l 3.822 2.866 l 6.248 -7.288 c 0.359 -0.42 0.992 -0.468 1.41 -0.108 C 20.999 22.101 21.047 22.731 20.688 23.15 Z M 20.688 9.15 l -6.857 8 c -0.197 0.23 -0.477 0.35 -0.76 0.35 c -0.209 0 -0.42 -0.065 -0.6 -0.2 L 7.9 13.871 c -0.442 -0.331 -0.531 -0.958 -0.2 -1.399 c 0.332 -0.442 0.958 -0.531 1.4 -0.2 l 3.822 2.866 l 6.248 -7.288 c 0.359 -0.42 0.992 -0.468 1.41 -0.108 C 20.999 8.101 21.047 8.731 20.688 9.15 Z" data-original="#000000" data-old_color="#CE3902" fill="#CE3800"/>
</g></g> </svg>
