<?xml version="1.0"?>
<svg xmlns="http://www.w3.org/2000/svg" xmlns:xlink="http://www.w3.org/1999/xlink" class="hovered-paths" id="Capa_1" style="enable-background:new 0 0 392.619 392.619;" viewBox="0 0 392.619 392.619" x="0px" y="0px" width="512px" height="512px" version="1.1" xml:space="preserve"><g><g>
	<path class="active-path" d="M 310.724 0.929 H 81.896 C 36.738 0.929 0 37.667 0 82.825 v 226.969 c 0 45.158 36.738 81.896 81.896 81.896 h 228.828 c 45.157 0 81.896 -36.738 81.896 -81.896 V 82.825 C 392.619 37.667 355.881 0.929 310.724 0.929 Z M 362.619 309.794 c 0 28.616 -23.28 51.896 -51.896 51.896 H 81.896 C 53.28 361.69 30 338.41 30 309.794 V 82.825 c 0 -28.615 23.28 -51.896 51.896 -51.896 h 228.828 c 28.615 0 51.896 23.28 51.896 51.896 V 309.794 Z" data-original="#000000" data-old_color="#D43200" fill="#D63A09"/>
	<path class="active-path" d="M 286.559 107.182 c -5.839 -5.877 -15.336 -5.908 -21.214 -0.069 l -66.539 66.106 l -66.572 -66.572 c -5.857 -5.858 -15.355 -5.858 -21.213 0 c -5.858 5.858 -5.858 15.355 0 21.213 l 66.502 66.503 l -65.968 65.539 c -5.877 5.839 -5.907 15.336 -0.069 21.213 c 2.933 2.952 6.786 4.428 10.642 4.428 c 3.822 0 7.646 -1.452 10.572 -4.359 l 66.037 -65.608 l 66.073 66.073 c 2.929 2.929 6.768 4.394 10.606 4.394 c 3.838 0 7.678 -1.465 10.606 -4.394 c 5.858 -5.858 5.858 -15.355 0 -21.213 l -66.004 -66.004 l 66.47 -66.038 C 292.366 122.556 292.396 113.059 286.559 107.182 Z" data-original="#000000" data-old_color="#D43200" fill="#D63A09"/>
</g></g> </svg>
