<?xml version="1.0"?>
<svg xmlns="http://www.w3.org/2000/svg" xmlns:xlink="http://www.w3.org/1999/xlink" class="" id="Layer_1" style="enable-background:new 0 0 512 512;" viewBox="0 0 512 512" x="0px" y="0px" width="512px" height="512px" version="1.1" xml:space="preserve"><g><g><path class="active-path" style="fill:#009E35" d="M 372.364 349.091 c -51.33 0 -93.091 -41.761 -93.091 -93.091 s 41.761 -93.091 93.091 -93.091 c 12.853 0 23.273 -10.42 23.273 -23.273 c 0 -12.853 -10.42 -23.273 -23.273 -23.273 H 139.636 C 62.641 116.364 0 179.005 0 256 s 62.641 139.636 139.636 139.636 h 232.727 c 12.853 0 23.273 -10.42 23.273 -23.273 S 385.216 349.091 372.364 349.091 Z" data-original="#22ffae" data-old_color="#019C35"/><circle class="" style="fill:#5E346B" cx="372.364" cy="256" r="116.364" data-original="#5e346b" data-old_color="#5D3469"/><path class="" style="fill:#A9A8AE" d="M 372.364 395.636 c -76.995 0 -139.636 -62.641 -139.636 -139.636 s 62.641 -139.636 139.636 -139.636 S 512 179.005 512 256 S 449.359 395.636 372.364 395.636 Z M 372.364 162.909 c -51.33 0 -93.091 41.761 -93.091 93.091 s 41.761 93.091 93.091 93.091 S 465.455 307.33 465.455 256 S 423.694 162.909 372.364 162.909 Z" data-original="#a9a8ae"/></g></g> </svg>
