<?xml version="1.0" encoding="UTF-8" standalone="no"?>
<svg
   xmlns:dc="http://purl.org/dc/elements/1.1/"
   xmlns:cc="http://creativecommons.org/ns#"
   xmlns:rdf="http://www.w3.org/1999/02/22-rdf-syntax-ns#"
   xmlns:svg="http://www.w3.org/2000/svg"
   xmlns="http://www.w3.org/2000/svg"
   xmlns:sodipodi="http://sodipodi.sourceforge.net/DTD/sodipodi-0.dtd"
   xmlns:inkscape="http://www.inkscape.org/namespaces/inkscape"
   version="1.1"
   viewBox="0 0 19.481 19.481"
   enable-background="new 0 0 19.481 19.481"
   width="512px"
   height="512px"
   id="svg3733"
   sodipodi:docname="star_gold.svg"
   inkscape:version="0.92.3 (2405546, 2018-03-11)">
  <metadata
     id="metadata3739">
    <rdf:RDF>
      <cc:Work
         rdf:about="">
        <dc:format>image/svg+xml</dc:format>
        <dc:type
           rdf:resource="http://purl.org/dc/dcmitype/StillImage" />
      </cc:Work>
    </rdf:RDF>
  </metadata>
  <defs
     id="defs3737" />
  <sodipodi:namedview
     pagecolor="#ffffff"
     bordercolor="#666666"
     borderopacity="1"
     objecttolerance="10"
     gridtolerance="10"
     guidetolerance="10"
     inkscape:pageopacity="0"
     inkscape:pageshadow="2"
     inkscape:window-width="1920"
     inkscape:window-height="1017"
     id="namedview3735"
     showgrid="false"
     inkscape:zoom="1.65625"
     inkscape:cx="256"
     inkscape:cy="256"
     inkscape:window-x="-8"
     inkscape:window-y="-8"
     inkscape:window-maximized="1"
     inkscape:current-layer="svg3733" />
  <g
     id="g3731">
    <g
       id="g3729">
      <path
         d="m19.023,7.167l-6.343-.544-2.478-5.865c-0.172-0.407-0.749-0.407-0.921,0l-2.479,5.865-6.344,.544c-0.44,0.038-0.619,0.587-0.285,0.876l4.812,4.169-1.442,6.202c-0.1,0.431 0.367,0.77 0.745,0.541l5.452-3.288 5.452,3.288c0.379,0.228 0.845-0.111 0.745-0.541l-1.442-6.202 4.812-4.169c0.335-0.289 0.157-0.838-0.284-0.876zm-6.293,3.929c-0.281,0.243-0.403,0.621-0.319,0.983l.775,3.331-2.929-1.766c-0.318-0.192-0.715-0.192-1.033,0l-2.929,1.766 .775-3.331c0.084-0.361-0.039-0.74-0.319-0.983l-2.586-2.24 3.409-.293c0.37-0.032 0.691-0.266 0.836-0.607l1.331-3.15 1.331,3.15c0.144,0.342 0.466,0.576 0.836,0.607l3.409,.293-2.587,2.24z"
         data-original="#000000"
         class="active-path"
         data-old_color="#050505"
         fill="#030303"
         id="path3727" />
    </g>
  </g>
  <path
     style="fill:#ffff00;stroke-width:0.60377359"
     d="m 166.03774,404.07915 c 0,-0.19059 4.61886,-20.20281 10.26415,-44.4716 11.13295,-47.86002 11.3219,-49.02217 9.12026,-56.09603 -2.25986,-7.26095 -2.88975,-7.89117 -40.04024,-40.06112 -19.24515,-16.66508 -34.76494,-30.36803 -34.48843,-30.451 0.27651,-0.083 19.79331,-1.7813 43.37067,-3.77407 23.57736,-1.99277 44.7112,-3.92852 46.96409,-4.30167 8.95285,-1.48288 16.13727,-7.29301 20.28267,-16.40284 1.24855,-2.74381 9.45145,-22.03633 18.22865,-42.87227 8.7772,-20.83593 16.09765,-37.88499 16.26766,-37.88679 0.17001,-0.002 7.88993,17.99673 17.15538,39.99673 9.26546,22 17.6307,41.51709 18.58944,43.37132 3.11676,6.0279 9.11918,11.09517 15.4238,13.02085 1.67056,0.51025 21.71208,2.49837 48.14491,4.77596 24.90567,2.14601 45.51537,3.97628 45.79935,4.06726 0.28398,0.091 -15.20281,13.78735 -34.41509,30.43636 -23.96993,20.7719 -35.55885,31.2068 -36.93085,33.25331 -1.09969,1.64031 -2.52611,4.67458 -3.16981,6.74283 -2.23374,7.177 -2.06398,8.22544 9.09376,56.1635 5.64529,24.25436 10.26415,44.22611 10.26415,44.38166 0,0.15555 -17.80522,-10.43698 -39.56715,-23.53896 -26.89951,-16.19511 -40.65185,-24.13712 -42.95516,-24.80671 -5.04311,-1.46607 -13.33957,-0.97347 -17.7041,1.05119 -2.56786,1.1912 -72.046,42.75195 -78.33962,46.86155 -0.74717,0.48788 -1.35849,0.73113 -1.35849,0.54054 z"
     id="path3743"
     inkscape:connector-curvature="0"
     transform="scale(0.03804883)" />
</svg>
