<?xml version="1.0" encoding="iso-8859-1"?>
<!-- Generator: Adobe Illustrator 16.0.0, SVG Export Plug-In . SVG Version: 6.00 Build 0)  -->
<!DOCTYPE svg PUBLIC "-//W3C//DTD SVG 1.1//EN" "http://www.w3.org/Graphics/SVG/1.1/DTD/svg11.dtd">
<svg xmlns="http://www.w3.org/2000/svg" xmlns:xlink="http://www.w3.org/1999/xlink" version="1.1" id="Capa_1" x="0px" y="0px" width="512px" height="512px" viewBox="0 0 97.698 97.698" style="enable-background:new 0 0 97.698 97.698;" xml:space="preserve">
<g>
	<g>
		<path d="M64.897,48.707c-0.004-0.004-0.01-0.007-0.014-0.012l-8.581,21.187h-14.91l-8.578-21.187    c-1.428,0.864-2.876,1.951-4.291,3.288l18.305,45.675c0.713,0.023,1.431,0.04,2.158,0.04c0.637,0,1.262-0.012,1.88-0.029    l18.311-45.689C67.772,50.653,66.33,49.572,64.897,48.707z" fill="#550000"/>
		<path d="M81.198,84.229C80.44,69.551,76.307,60.088,71.3,54.216L53.958,97.486c6.96-0.616,12.383-2.588,15.386-5.893    c0,0,6.219-0.315,6.334-0.323C78.917,91.056,81.388,87.902,81.198,84.229z" fill="#550000"/>
		<path d="M16.5,84.226c-0.191,3.677,2.28,6.83,5.517,7.045c0.116,0.008,6.337,0.323,6.337,0.323    c3.078,3.495,8.754,5.289,15.379,5.878L26.401,54.225C21.425,60.068,17.259,69.51,16.5,84.226z" fill="#550000"/>
		<path d="M74.872,44.548c-2.389-0.586-4.92-3.468-6.316-5.277c1.903-1.263,3.001-3.792,3.491-6.646    c0.791-4.63-0.871-6.888-3.799-7.394c-0.194-2.11-0.471-4.13-0.897-6.016l-2.868,1.352l-9.969,4.698    c-1.547,0.729-3.325,0.79-4.918,0.168l-15.652-6.104l-3.373-1.314c-0.599,2.221-0.951,4.65-1.186,7.218    c-2.928,0.506-4.59,2.764-3.798,7.395c0.495,2.893,1.632,5.424,3.535,6.671c-1.4,1.812-3.919,4.667-6.296,5.251    c0,0,2.154,1.937,5.888,1.047c0,0-1.643,4.654-5.888,5.616c0,0,0.943,0.676,2.564,1.117c0,0,4.148-4.241,8.809-6.81    c3.5,5.35,8.538,8.631,14.619,8.631c5.844,0,11.077-3.199,14.656-8.646c4.67,2.565,8.834,6.823,8.834,6.823    c1.622-0.441,2.564-1.117,2.564-1.117c-4.245-0.962-5.889-5.616-5.889-5.616C72.717,46.483,74.872,44.548,74.872,44.548z     M63.288,29.594c-0.533,11.168-6.553,19.05-14.471,19.05c-7.458,0-13.029-6.819-14.153-16.33    c-0.272-2.306-0.282-4.302-0.102-6.055c3.758,1.78,8.771,2.872,14.286,2.872c5.537,0,10.551-1.108,14.314-2.9    C63.295,27.26,63.345,28.375,63.288,29.594z" fill="#550000"/>
		<path d="M23.604,25.602c1.219,0,2.207,0.012,2.207-1.207c0-0.85-0.481-3.612-1.185-5.21c0.702-0.37,1.185-1.098,1.185-1.945    c0-0.643-0.28-1.217-0.719-1.62V11.46h22.754c0.535,0,0.968,0.434,0.968,0.968v0.032c0,0.553-0.448,1-1,1h-18.65    c-0.19,0-0.354,0.136-0.39,0.321c-0.036,0.188,0.066,0.374,0.243,0.444l20.979,8.355c1.271,0.496,2.689,0.447,3.923-0.135    l20.206-9.521c0.648-0.308,1.053-0.972,1.024-1.688C75.123,10.521,74.67,9.889,74,9.634L49.607,0.326    c-1.2-0.458-2.532-0.433-3.714,0.069L26.926,8.46h-3.333c-0.829,0-1.5,0.672-1.5,1.5v5.68c-0.426,0.401-0.695,0.969-0.695,1.601    c0,0.849,0.483,1.575,1.185,1.945c-0.704,1.598-1.185,4.36-1.185,5.21C21.397,25.613,22.386,25.602,23.604,25.602z" fill="#550000"/>
	</g>
</g>
<g>
</g>
<g>
</g>
<g>
</g>
<g>
</g>
<g>
</g>
<g>
</g>
<g>
</g>
<g>
</g>
<g>
</g>
<g>
</g>
<g>
</g>
<g>
</g>
<g>
</g>
<g>
</g>
<g>
</g>
</svg>
