<?xml version="1.0"?>
<svg xmlns="http://www.w3.org/2000/svg" xmlns:xlink="http://www.w3.org/1999/xlink" class="" id="Capa_1" style="enable-background:new 0 0 328.911 328.911;" viewBox="0 0 328.911 328.911" x="0px" y="0px" width="512px" height="512px" version="1.1" xml:space="preserve"><g><g>
	<g>
		<path class="active-path" d="M 310.199 18.71 C 297.735 6.242 282.65 0.007 264.951 0.007 H 63.954 c -17.703 0 -32.79 6.235 -45.253 18.704 C 6.235 31.177 0 46.261 0 63.96 v 200.991 c 0 17.515 6.232 32.552 18.701 45.11 c 12.467 12.566 27.553 18.843 45.253 18.843 h 201.004 c 17.699 0 32.777 -6.276 45.248 -18.843 c 12.47 -12.559 18.705 -27.596 18.705 -45.11 V 63.96 C 328.911 46.261 322.666 31.177 310.199 18.71 Z M 292.362 264.96 c 0 7.614 -2.673 14.089 -8.001 19.414 c -5.324 5.332 -11.799 7.994 -19.41 7.994 H 63.954 c -7.614 0 -14.082 -2.662 -19.414 -7.994 c -5.33 -5.325 -7.992 -11.8 -7.992 -19.414 V 63.965 c 0 -7.613 2.662 -14.086 7.992 -19.414 c 5.327 -5.327 11.8 -7.994 19.414 -7.994 h 201.004 c 7.61 0 14.086 2.663 19.41 7.994 c 5.325 5.328 7.994 11.801 7.994 19.414 V 264.96 Z" data-original="#000000" data-old_color="#009844" fill="#009844"/>
		<path class="active-path" d="M 246.683 146.189 H 182.73 V 82.236 c 0 -2.667 -0.855 -4.854 -2.573 -6.567 c -1.704 -1.714 -3.895 -2.568 -6.564 -2.568 h -18.271 c -2.667 0 -4.854 0.854 -6.567 2.568 c -1.714 1.713 -2.568 3.903 -2.568 6.567 v 63.954 H 82.233 c -2.664 0 -4.857 0.855 -6.567 2.568 c -1.711 1.713 -2.568 3.903 -2.568 6.567 v 18.271 c 0 2.666 0.854 4.855 2.568 6.563 c 1.712 1.708 3.903 2.57 6.567 2.57 h 63.954 v 63.953 c 0 2.666 0.854 4.855 2.568 6.563 c 1.713 1.711 3.903 2.566 6.567 2.566 h 18.271 c 2.67 0 4.86 -0.855 6.564 -2.566 c 1.718 -1.708 2.573 -3.897 2.573 -6.563 V 182.73 h 63.953 c 2.662 0 4.853 -0.862 6.563 -2.57 c 1.712 -1.708 2.563 -3.897 2.563 -6.563 v -18.271 c 0 -2.664 -0.852 -4.857 -2.563 -6.567 C 251.536 147.048 249.345 146.189 246.683 146.189 Z" data-original="#000000" data-old_color="#009844" fill="#009844"/>
	</g>
</g></g> </svg>
