<?xml version="1.0"?>
<svg xmlns="http://www.w3.org/2000/svg" xmlns:xlink="http://www.w3.org/1999/xlink" class="" id="Capa_1" style="enable-background:new 0 0 57 57;" viewBox="0 0 57 57" x="0px" y="0px" width="512px" height="512px" version="1.1" xml:space="preserve"><g><g>
	<path class="active-path" d="M 49.179 38 l -5.596 8.04 l -3.949 -3.241 c -0.426 -0.351 -1.057 -0.288 -1.407 0.138 c -0.351 0.427 -0.289 1.058 0.139 1.407 l 4.786 3.929 c 0.18 0.148 0.404 0.228 0.634 0.228 c 0.045 0 0.091 -0.003 0.137 -0.01 c 0.276 -0.038 0.524 -0.19 0.684 -0.419 l 6.214 -8.929 c 0.315 -0.453 0.204 -1.076 -0.25 -1.392 C 50.117 37.433 49.495 37.546 49.179 38 Z" data-original="#000000" data-old_color="#01A51D" fill="#009844"/>
	<path class="active-path" d="M 44 30.5 c -7.168 0 -13 5.832 -13 13 s 5.832 13 13 13 s 13 -5.832 13 -13 S 51.168 30.5 44 30.5 Z M 44 54.5 c -6.065 0 -11 -4.935 -11 -11 s 4.935 -11 11 -11 s 11 4.935 11 11 S 50.065 54.5 44 54.5 Z" data-original="#000000" data-old_color="#01A51D" fill="#009844"/>
	<path class="active-path" d="M 27 43.5 c -0.552 0 -1 -0.447 -1 -1 s 0.448 -1 1 -1 h 1.139 c 0.754 -6.002 4.84 -10.968 10.346 -13 H 27 c -0.552 0 -1 -0.447 -1 -1 s 0.448 -1 1 -1 h 18 c 0.552 0 1 0.447 1 1 c 0 0.048 -0.021 0.089 -0.027 0.135 c 3.014 0.373 5.77 1.582 8.027 3.395 V 12.676 C 54 5.962 48.538 0.5 41.824 0.5 H 12.176 C 5.462 0.5 0 5.962 0 12.676 v 29.648 C 0 49.038 5.462 54.5 12.176 54.5 h 20.236 C 29.685 51.629 28 47.762 28 43.5 H 27 Z M 27 12.5 h 18 c 0.552 0 1 0.447 1 1 s -0.448 1 -1 1 H 27 c -0.552 0 -1 -0.447 -1 -1 S 26.448 12.5 27 12.5 Z M 20.688 38.15 l -6.857 7.999 c -0.197 0.23 -0.477 0.35 -0.76 0.35 c -0.209 0 -0.42 -0.065 -0.6 -0.2 L 7.9 42.87 c -0.442 -0.331 -0.531 -0.958 -0.2 -1.399 c 0.332 -0.442 0.958 -0.53 1.4 -0.2 l 3.822 2.866 l 6.248 -7.287 c 0.359 -0.42 0.992 -0.468 1.41 -0.108 C 20.999 37.101 21.047 37.731 20.688 38.15 Z M 20.688 23.15 l -6.857 8 c -0.197 0.23 -0.477 0.35 -0.76 0.35 c -0.209 0 -0.42 -0.065 -0.6 -0.2 L 7.9 27.871 c -0.442 -0.331 -0.531 -0.958 -0.2 -1.399 c 0.332 -0.442 0.958 -0.531 1.4 -0.2 l 3.822 2.866 l 6.248 -7.288 c 0.359 -0.42 0.992 -0.468 1.41 -0.108 C 20.999 22.101 21.047 22.731 20.688 23.15 Z M 20.688 9.15 l -6.857 8 c -0.197 0.23 -0.477 0.35 -0.76 0.35 c -0.209 0 -0.42 -0.065 -0.6 -0.2 L 7.9 13.871 c -0.442 -0.331 -0.531 -0.958 -0.2 -1.399 c 0.332 -0.442 0.958 -0.531 1.4 -0.2 l 3.822 2.866 l 6.248 -7.288 c 0.359 -0.42 0.992 -0.468 1.41 -0.108 C 20.999 8.101 21.047 8.731 20.688 9.15 Z" data-original="#000000" data-old_color="#01A51D" fill="#009844"/>
</g></g> </svg>
