<?xml version="1.0"?>
<svg xmlns="http://www.w3.org/2000/svg" xmlns:xlink="http://www.w3.org/1999/xlink" class="" id="Capa_1" style="enable-background:new 0 0 512.001 512.001;" viewBox="0 0 512.001 512.001" x="0px" y="0px" width="512px" height="512px" version="1.1" xml:space="preserve"><g><polygon class="" style="fill:#E0E0E0;" points="442.005,504.514 157.648,504.514 69.996,416.862 69.996,7.486 442.005,7.486" data-original="#e0e0e0"/><rect style="fill:#C6C5CA;" x="417.052" y="7.486" width="24.954" height="497.024" data-original="#c6c5ca"/><polygon style="fill:#919191;" points="157.648,416.863 69.996,416.863 157.648,504.514" data-original="#919191"/><path class="" style="fill:#FFFFFF;" d="M 389.399 236.258 c 0 0 -59.724 84.79 -133.397 84.79 s -133.397 -84.79 -133.397 -84.79 s 59.724 -84.79 133.397 -84.79 S 389.399 236.258 389.399 236.258 Z" data-original="#ffffff"/><circle class="active-path" style="fill:#6E00CC" cx="255.999" cy="236.254" r="54.1" data-original="#546f7a" data-old_color="#6A01FF"/><circle class="" style="fill:#3C5156" cx="255.999" cy="236.254" r="30.953" data-original="#3c5156"/><path class="" style="fill:#000000" d="M 162.702 202.998 c 3.049 -2.792 3.258 -7.527 0.465 -10.577 c -2.792 -3.048 -7.527 -3.258 -10.576 -0.465 c -22.105 20.242 -35.546 39.196 -36.107 39.991 c -1.822 2.586 -1.822 6.037 0 8.623 c 0.63 0.894 15.725 22.172 40.252 43.708 c 32.972 28.953 67.297 44.255 99.266 44.255 s 66.295 -15.303 99.266 -44.255 c 24.527 -21.536 39.622 -42.814 40.253 -43.708 c 1.821 -2.586 1.821 -6.037 0 -8.623 c -0.631 -0.894 -15.726 -22.172 -40.253 -43.708 c -32.971 -28.953 -67.297 -44.256 -99.266 -44.256 c -25.794 0 -52.503 9.601 -79.386 28.538 c -3.38 2.382 -4.19 7.051 -1.809 10.432 c 2.382 3.381 7.052 4.191 10.432 1.81 c 24.309 -17.124 48.117 -25.807 70.763 -25.807 c 59.565 0 110.88 60.449 124.024 77.303 c -13.153 16.863 -64.463 77.302 -124.024 77.302 c -59.578 0 -110.9 -60.473 -124.032 -77.313 C 137.051 229.7 147.867 216.583 162.702 202.998 Z" data-original="#000000"/><path class="" style="fill:#000000" d="M 317.586 236.258 c 0 -33.958 -27.627 -61.585 -61.585 -61.585 s -61.585 27.627 -61.585 61.585 s 27.627 61.584 61.585 61.584 C 289.959 297.843 317.586 270.217 317.586 236.258 Z M 209.387 236.258 c 0 -25.703 20.91 -46.613 46.613 -46.613 s 46.613 20.91 46.613 46.613 c 0 25.702 -20.91 46.612 -46.613 46.612 C 230.298 282.871 209.387 261.96 209.387 236.258 Z" data-original="#000000"/><path class="" style="fill:#000000" d="M 442.005 419.389 c -4.135 0 -7.486 3.351 -7.486 7.486 v 70.153 H 165.134 v -80.165 c 0 -4.135 -3.352 -7.486 -7.486 -7.486 H 77.483 V 115.176 c 0 -4.135 -3.352 -7.486 -7.486 -7.486 s -7.486 3.351 -7.486 7.486 v 301.687 c 0 0.082 0.009 0.164 0.012 0.246 c 0.003 0.09 0.007 0.179 0.013 0.268 c 0.021 0.307 0.055 0.612 0.114 0.912 c 0.003 0.016 0.005 0.033 0.008 0.049 c 0.062 0.309 0.151 0.612 0.251 0.91 c 0.028 0.085 0.059 0.168 0.09 0.252 c 0.104 0.275 0.22 0.544 0.354 0.805 c 0.014 0.027 0.025 0.056 0.039 0.083 c 0.149 0.279 0.322 0.545 0.506 0.805 c 0.053 0.075 0.108 0.148 0.164 0.222 c 0.191 0.249 0.392 0.489 0.614 0.714 c 0.01 0.01 0.017 0.021 0.026 0.031 l 87.651 87.651 c 0.177 0.177 0.361 0.343 0.553 0.5 c 0.097 0.08 0.201 0.149 0.301 0.223 c 0.098 0.072 0.192 0.149 0.292 0.216 c 0.116 0.077 0.237 0.143 0.356 0.214 c 0.092 0.054 0.181 0.113 0.275 0.164 c 0.12 0.064 0.244 0.117 0.366 0.174 c 0.099 0.046 0.195 0.097 0.295 0.138 c 0.119 0.049 0.243 0.088 0.363 0.13 c 0.109 0.038 0.215 0.082 0.325 0.115 c 0.118 0.036 0.24 0.06 0.359 0.09 c 0.117 0.029 0.232 0.063 0.35 0.087 c 0.126 0.025 0.253 0.038 0.379 0.057 c 0.115 0.017 0.229 0.039 0.344 0.051 c 0.213 0.021 0.426 0.029 0.641 0.032 c 0.031 0 0.061 0.005 0.091 0.005 h 284.357 c 4.135 0 7.486 -3.351 7.486 -7.486 v -77.639 C 449.491 422.741 446.14 419.389 442.005 419.389 Z M 150.162 486.441 L 88.071 424.35 h 62.091 V 486.441 Z" data-original="#000000"/><path class="" style="fill:#000000" d="M 442.005 0 H 69.996 c -4.134 0 -7.486 3.351 -7.486 7.486 V 85.23 c 0 4.135 3.352 7.486 7.486 7.486 s 7.486 -3.351 7.486 -7.486 V 14.972 h 357.036 V 396.93 c 0 4.135 3.351 7.486 7.486 7.486 s 7.486 -3.351 7.486 -7.486 V 7.486 C 449.491 3.351 446.14 0 442.005 0 Z" data-original="#000000"/></g> </svg>
