<?xml version="1.0" encoding="UTF-8" standalone="no"?>
<!-- Generator: Adobe Illustrator 19.0.0, SVG Export Plug-In . SVG Version: 6.00 Build 0)  -->

<svg
   xmlns:dc="http://purl.org/dc/elements/1.1/"
   xmlns:cc="http://creativecommons.org/ns#"
   xmlns:rdf="http://www.w3.org/1999/02/22-rdf-syntax-ns#"
   xmlns:svg="http://www.w3.org/2000/svg"
   xmlns="http://www.w3.org/2000/svg"
   xmlns:sodipodi="http://sodipodi.sourceforge.net/DTD/sodipodi-0.dtd"
   xmlns:inkscape="http://www.inkscape.org/namespaces/inkscape"
   version="1.1"
   id="Layer_1"
   x="0px"
   y="0px"
   viewBox="0 0 512 512"
   style="enable-background:new 0 0 512 512;"
   xml:space="preserve"
   sodipodi:docname="App_WSU.svg"
   inkscape:version="0.92.3 (2405546, 2018-03-11)"><metadata
   id="metadata75"><rdf:RDF><cc:Work
       rdf:about=""><dc:format>image/svg+xml</dc:format><dc:type
         rdf:resource="http://purl.org/dc/dcmitype/StillImage" /><dc:title></dc:title></cc:Work></rdf:RDF></metadata><defs
   id="defs73" /><sodipodi:namedview
   pagecolor="#ffffff"
   bordercolor="#666666"
   borderopacity="1"
   objecttolerance="10"
   gridtolerance="10"
   guidetolerance="10"
   inkscape:pageopacity="0"
   inkscape:pageshadow="2"
   inkscape:window-width="1920"
   inkscape:window-height="1017"
   id="namedview71"
   showgrid="false"
   inkscape:zoom="0.921875"
   inkscape:cx="222.45189"
   inkscape:cy="250.43015"
   inkscape:window-x="-8"
   inkscape:window-y="-8"
   inkscape:window-maximized="1"
   inkscape:current-layer="Layer_1" />
<g
   id="g38"
   style="fill:#492365;fill-opacity:1">
	<g
   id="g36"
   style="fill:#492365;fill-opacity:1">
		<g
   id="g34"
   style="fill:#492365;fill-opacity:1">
			<path
   d="M375.451,315.733c0-4.71-3.823-8.533-8.533-8.533h-51.2c-4.71,0-8.533,3.823-8.533,8.533s3.823,8.533,8.533,8.533h51.2     C371.628,324.267,375.451,320.444,375.451,315.733z"
   id="path2"
   style="fill:#492365;fill-opacity:1" />
			<path
   d="M341.317,93.867V51.2c0-4.71-3.823-8.533-8.533-8.533s-8.533,3.823-8.533,8.533v42.667     c0,23.526,19.14,42.667,42.667,42.667h76.8v162.133c0,4.71,3.823,8.533,8.533,8.533s8.533-3.823,8.533-8.533V128     c0-4.71-3.823-8.533-8.533-8.533h-85.333C352.803,119.467,341.317,107.981,341.317,93.867z"
   id="path4"
   style="fill:#492365;fill-opacity:1" />
			<path
   d="M366.917,204.8h-68.267c-4.71,0-8.533,3.823-8.533,8.533c0,4.71,3.823,8.533,8.533,8.533h68.267     c4.71,0,8.533-3.823,8.533-8.533C375.451,208.623,371.628,204.8,366.917,204.8z"
   id="path6"
   style="fill:#492365;fill-opacity:1" />
			<path
   d="M273.051,213.333c0-4.71-3.823-8.533-8.533-8.533h-51.2c-4.71,0-8.533,3.823-8.533,8.533c0,4.71,3.823,8.533,8.533,8.533     h51.2C269.228,221.867,273.051,218.044,273.051,213.333z"
   id="path8"
   style="fill:#492365;fill-opacity:1" />
			<path
   d="M213.317,256c-4.71,0-8.533,3.823-8.533,8.533c0,4.71,3.823,8.533,8.533,8.533h17.067c4.71,0,8.533-3.823,8.533-8.533     c0-4.71-3.823-8.533-8.533-8.533H213.317z"
   id="path10"
   style="fill:#492365;fill-opacity:1" />
			<path
   d="M213.317,170.667h85.333c4.71,0,8.533-3.823,8.533-8.533c0-4.71-3.823-8.533-8.533-8.533h-85.333     c-4.71,0-8.533,3.823-8.533,8.533C204.784,166.844,208.607,170.667,213.317,170.667z"
   id="path12"
   style="fill:#492365;fill-opacity:1" />
			<path
   d="M264.517,273.067h85.333c4.71,0,8.533-3.823,8.533-8.533c0-4.71-3.823-8.533-8.533-8.533h-85.333     c-4.71,0-8.533,3.823-8.533,8.533C255.984,269.244,259.807,273.067,264.517,273.067z"
   id="path14"
   style="fill:#492365;fill-opacity:1" />
			<path
   d="M315.717,358.4c-4.71,0-8.533,3.823-8.533,8.533s3.823,8.533,8.533,8.533h17.067c4.71,0,8.533-3.823,8.533-8.533     s-3.823-8.533-8.533-8.533H315.717z"
   id="path16"
   style="fill:#492365;fill-opacity:1" />
			<path
   d="M281.584,307.2h-68.267c-4.71,0-8.533,3.823-8.533,8.533s3.823,8.533,8.533,8.533h68.267c4.71,0,8.533-3.823,8.533-8.533     S286.294,307.2,281.584,307.2z"
   id="path18"
   style="fill:#492365;fill-opacity:1" />
			<path
   d="M281.584,358.4h-68.267c-4.71,0-8.533,3.823-8.533,8.533s3.823,8.533,8.533,8.533h68.267c4.71,0,8.533-3.823,8.533-8.533     S286.294,358.4,281.584,358.4z"
   id="path20"
   style="fill:#492365;fill-opacity:1" />
			<path
   d="M484.754,351.497l-17.067-17.067c-13.116-13.116-33.101-13.09-46.199,0L309.684,446.234     c-1.596,1.596-2.5,3.772-2.5,6.033v51.2c0,4.71,3.823,8.533,8.533,8.533h51.2c2.261,0,4.437-0.904,6.033-2.5l111.804-111.804     C498.348,384.102,498.348,365.099,484.754,351.497z M410.454,369.596l13.534,13.534l-74.138,74.138l-13.534-13.534     L410.454,369.596z M324.251,494.933v-39.134l39.134,39.134H324.251z M375.451,482.867l-13.534-13.534l74.138-74.138     l13.534,13.534L375.451,482.867z M472.688,385.63l-11.034,11.034l-39.134-39.134l11.034-11.034     c6.741-6.733,15.292-6.767,22.067,0l17.067,17.067C479.591,370.475,479.591,378.726,472.688,385.63z"
   id="path22"
   style="fill:#492365;fill-opacity:1" />
			<path
   d="M281.584,494.933H59.717c-14.114,0-25.6-11.486-25.6-25.6V42.667c0-14.114,11.486-25.6,25.6-25.6h269.534L412.084,99.9     c3.336,3.337,8.73,3.337,12.066,0c3.337-3.336,3.337-8.73,0-12.066L338.817,2.5c-1.596-1.604-3.772-2.5-6.033-2.5H59.717     C36.191,0,17.051,19.14,17.051,42.667v426.667c0,23.526,19.14,42.667,42.667,42.667h221.867c4.71,0,8.533-3.823,8.533-8.533     S286.294,494.933,281.584,494.933z"
   id="path24"
   style="fill:#492365;fill-opacity:1" />
			<path
   d="M281.584,409.6h-68.267c-4.71,0-8.533,3.823-8.533,8.533s3.823,8.533,8.533,8.533h68.267c4.71,0,8.533-3.823,8.533-8.533     S286.294,409.6,281.584,409.6z"
   id="path26"
   style="fill:#492365;fill-opacity:1" />
			<path
   d="M170.651,162.133c0-4.71-3.823-8.533-8.533-8.533h-51.2c-4.71,0-8.533,3.823-8.533,8.533v51.2     c0,4.71,3.823,8.533,8.533,8.533h51.2c4.71,0,8.533-3.823,8.533-8.533V162.133z M153.584,204.8h-34.133v-34.133h34.133V204.8z"
   id="path28"
   style="fill:#492365;fill-opacity:1" />
			<path
   d="M110.917,426.667h51.2c4.71,0,8.533-3.823,8.533-8.533v-51.2c0-4.71-3.823-8.533-8.533-8.533h-51.2     c-4.71,0-8.533,3.823-8.533,8.533v51.2C102.384,422.844,106.207,426.667,110.917,426.667z M119.451,375.467h34.133V409.6h-34.133     V375.467z"
   id="path30"
   style="fill:#492365;fill-opacity:1" />
			<path
   d="M121.951,321.766c1.604,1.604,3.78,2.5,6.033,2.5c0.282,0,0.555-0.008,0.845-0.043c2.543-0.247,4.838-1.63,6.255-3.755     l34.133-51.2c2.611-3.925,1.553-9.225-2.364-11.836c-3.934-2.62-9.216-1.553-11.836,2.364l-28.356,42.539l-9.711-9.702     c-3.336-3.337-8.73-3.337-12.066,0s-3.337,8.73,0,12.066L121.951,321.766z"
   id="path32"
   style="fill:#492365;fill-opacity:1" />
		</g>
	</g>
</g>
<g
   id="g40">
</g>
<g
   id="g42">
</g>
<g
   id="g44">
</g>
<g
   id="g46">
</g>
<g
   id="g48">
</g>
<g
   id="g50">
</g>
<g
   id="g52">
</g>
<g
   id="g54">
</g>
<g
   id="g56">
</g>
<g
   id="g58">
</g>
<g
   id="g60">
</g>
<g
   id="g62">
</g>
<g
   id="g64">
</g>
<g
   id="g66">
</g>
<g
   id="g68">
</g>
</svg>