<?xml version="1.0" encoding="iso-8859-1"?>
<svg xmlns="http://www.w3.org/2000/svg" xmlns:xlink="http://www.w3.org/1999/xlink" version="1.1" viewBox="0 0 137.144 137.144" enable-background="new 0 0 137.144 137.144" width="512px" height="512px">
  <g>
    <g>
      <path d="M27.43,82.286h82.286v-6.857H27.43V82.286z M68.573,89.144h-6.857v6.857H48.001l17.357,20.572l16.929-20.572H68.573    V89.144z M61.715,48h6.857v-6.857h13.714L65.358,20.572L48.001,41.143h13.714V48z M27.43,61.715h82.286v-6.857H27.43V61.715z     M109.716,0H27.429C12.281,0,0,12.281,0,27.429v82.286c0,15.149,12.281,27.429,27.429,27.429h82.286    c15.149,0,27.429-12.28,27.429-27.429V27.429C137.144,12.281,124.864,0,109.716,0z M123.43,102.859    c0,11.361-9.21,20.571-20.572,20.571H34.286c-11.361,0-20.572-9.21-20.572-20.571V34.286c0-11.361,9.21-20.571,20.572-20.571    h68.572c11.362,0,20.572,9.21,20.572,20.571V102.859z" fill="#270045"/>
    </g>
  </g>
</svg>
