<?xml version="1.0" encoding="UTF-8" standalone="no"?>
<!-- Generator: Adobe Illustrator 19.0.0, SVG Export Plug-In . SVG Version: 6.00 Build 0)  -->

<svg
   xmlns:dc="http://purl.org/dc/elements/1.1/"
   xmlns:cc="http://creativecommons.org/ns#"
   xmlns:rdf="http://www.w3.org/1999/02/22-rdf-syntax-ns#"
   xmlns:svg="http://www.w3.org/2000/svg"
   xmlns="http://www.w3.org/2000/svg"
   xmlns:sodipodi="http://sodipodi.sourceforge.net/DTD/sodipodi-0.dtd"
   xmlns:inkscape="http://www.inkscape.org/namespaces/inkscape"
   version="1.1"
   id="Layer_1"
   x="0px"
   y="0px"
   viewBox="0 0 512 512"
   style="enable-background:new 0 0 512 512;"
   xml:space="preserve"
   sodipodi:docname="swap_left.svg"
   inkscape:version="0.92.3 (2405546, 2018-03-11)"><metadata
   id="metadata102"><rdf:RDF><cc:Work
       rdf:about=""><dc:format>image/svg+xml</dc:format><dc:type
         rdf:resource="http://purl.org/dc/dcmitype/StillImage" /><dc:title></dc:title></cc:Work></rdf:RDF></metadata><defs
   id="defs100" /><sodipodi:namedview
   pagecolor="#ffffff"
   bordercolor="#666666"
   borderopacity="1"
   objecttolerance="10"
   gridtolerance="10"
   guidetolerance="10"
   inkscape:pageopacity="0"
   inkscape:pageshadow="2"
   inkscape:window-width="1920"
   inkscape:window-height="1017"
   id="namedview98"
   showgrid="false"
   inkscape:zoom="1.65625"
   inkscape:cx="256"
   inkscape:cy="256.30189"
   inkscape:window-x="-8"
   inkscape:window-y="-8"
   inkscape:window-maximized="1"
   inkscape:current-layer="Layer_1" />
<g
   id="g65">
	<g
   id="g63">
		<g
   id="g61">
			<path
   d="M72.837,213.333H320c11.782,0,21.333-9.551,21.333-21.333c0-11.782-9.551-21.333-21.333-21.333H72.837l48.915-48.915     c8.331-8.331,8.331-21.839,0-30.17c-8.331-8.331-21.839-8.331-30.17,0L6.248,176.915c-0.497,0.497-0.967,1.02-1.413,1.564     c-0.202,0.246-0.378,0.506-0.567,0.759c-0.228,0.304-0.463,0.601-0.675,0.918c-0.203,0.303-0.379,0.618-0.565,0.929     c-0.171,0.286-0.351,0.566-0.509,0.861c-0.17,0.317-0.314,0.644-0.466,0.968c-0.145,0.307-0.298,0.609-0.429,0.924     c-0.13,0.315-0.236,0.637-0.35,0.957c-0.121,0.337-0.25,0.669-0.354,1.013c-0.097,0.32-0.168,0.645-0.249,0.969     c-0.089,0.351-0.187,0.698-0.258,1.056c-0.074,0.375-0.118,0.753-0.172,1.13c-0.044,0.311-0.104,0.618-0.135,0.933     c-0.138,1.4-0.138,2.811,0,4.211c0.031,0.315,0.09,0.621,0.135,0.933c0.054,0.377,0.098,0.756,0.173,1.13     c0.071,0.358,0.169,0.704,0.258,1.055c0.081,0.324,0.152,0.649,0.249,0.969c0.104,0.344,0.233,0.677,0.354,1.013     c0.115,0.32,0.22,0.642,0.35,0.957c0.13,0.315,0.284,0.616,0.429,0.923c0.153,0.324,0.297,0.651,0.467,0.969     c0.158,0.294,0.337,0.573,0.508,0.859c0.186,0.312,0.362,0.627,0.565,0.931c0.211,0.316,0.446,0.612,0.673,0.916     c0.19,0.254,0.366,0.514,0.569,0.761c0.443,0.54,0.91,1.059,1.403,1.552c0.004,0.004,0.006,0.008,0.01,0.011l85.333,85.333     c8.331,8.331,21.839,8.331,30.17,0c8.331-8.331,8.331-21.839,0-30.17L72.837,213.333z"
   id="path57" />
			<path
   d="M507.164,333.522c0.204-0.248,0.38-0.509,0.571-0.764c0.226-0.302,0.461-0.598,0.671-0.913     c0.204-0.304,0.38-0.62,0.566-0.932c0.17-0.285,0.349-0.564,0.506-0.857c0.17-0.318,0.315-0.646,0.468-0.971     c0.145-0.306,0.297-0.607,0.428-0.921c0.13-0.315,0.236-0.637,0.35-0.957c0.121-0.337,0.25-0.669,0.354-1.013     c0.097-0.32,0.168-0.646,0.249-0.969c0.089-0.351,0.187-0.698,0.258-1.055c0.074-0.375,0.118-0.753,0.173-1.13     c0.044-0.311,0.104-0.617,0.135-0.933c0.138-1.4,0.138-2.811,0-4.211c-0.031-0.315-0.09-0.621-0.135-0.933     c-0.054-0.377-0.098-0.756-0.173-1.13c-0.071-0.358-0.169-0.704-0.258-1.055c-0.081-0.324-0.152-0.649-0.249-0.969     c-0.104-0.344-0.233-0.677-0.354-1.013c-0.115-0.32-0.22-0.642-0.35-0.957c-0.13-0.314-0.283-0.615-0.428-0.921     c-0.153-0.325-0.297-0.653-0.468-0.971c-0.157-0.293-0.336-0.572-0.506-0.857c-0.186-0.312-0.363-0.628-0.566-0.932     c-0.211-0.315-0.445-0.611-0.671-0.913c-0.191-0.255-0.368-0.516-0.571-0.764c-0.439-0.535-0.903-1.05-1.392-1.54     c-0.007-0.008-0.014-0.016-0.021-0.023l-85.333-85.333c-8.331-8.331-21.839-8.331-30.17,0s-8.331,21.839,0,30.17l48.915,48.915     H192c-11.782,0-21.333,9.551-21.333,21.333s9.551,21.333,21.333,21.333h247.163l-48.915,48.915     c-8.331,8.331-8.331,21.839,0,30.17s21.839,8.331,30.17,0l85.333-85.333c0.008-0.008,0.014-0.016,0.021-0.023     C506.261,334.572,506.725,334.057,507.164,333.522z"
   id="path59" />
		</g>
	</g>
</g>
<g
   id="g67">
</g>
<g
   id="g69">
</g>
<g
   id="g71">
</g>
<g
   id="g73">
</g>
<g
   id="g75">
</g>
<g
   id="g77">
</g>
<g
   id="g79">
</g>
<g
   id="g81">
</g>
<g
   id="g83">
</g>
<g
   id="g85">
</g>
<g
   id="g87">
</g>
<g
   id="g89">
</g>
<g
   id="g91">
</g>
<g
   id="g93">
</g>
<g
   id="g95">
</g>
<path
   style="fill:#000080;stroke-width:0.60377359"
   d="M 98.771206,296.7439 C 96.80858,295.91736 94.138023,294.20958 92.836637,292.94885 75.967692,276.60683 3.7652277,203.66698 2.9449195,202.13907 0.12850723,196.89325 -0.2901638,190.19645 1.8351026,184.38715 3.1090277,180.90494 4.8642952,179.0606 48.824514,135.01335 100.52215,83.213369 97.250632,85.991357 106.56604,85.982516 c 4.60217,-0.0044 5.94228,0.234878 8.75471,1.562952 10.58425,4.998034 15.06512,17.265192 10.27848,28.139132 -1.01521,2.30629 -6.58893,8.21776 -27.352299,29.00974 L 72.169666,170.80755 H 196.86364 c 138.27907,0 128.77217,-0.28081 135.01735,3.98793 6.03632,4.12598 9.76639,12.04846 9.0227,19.16377 -0.76974,7.36443 -5.5374,14.01337 -12.33222,17.19838 l -3.43939,1.61218 -126.46772,0.15794 -126.467711,0.15793 26.000658,26.10622 c 27.623483,27.73564 28.262133,28.50355 29.113623,35.00676 1.21516,9.28066 -2.82428,17.29499 -10.88768,21.60139 -3.31682,1.77141 -4.49488,2.06663 -8.95155,2.24326 -4.39477,0.17419 -5.64474,-0.0125 -8.700494,-1.29941 z"
   id="path110"
   inkscape:connector-curvature="0" /><path
   style="fill:#666666;stroke-width:0.60377359"
   d="m 399.00026,425.3917 c -10.2479,-3.79709 -15.67111,-12.56007 -14.32982,-23.15456 0.82124,-6.48678 1.4874,-7.28816 29.13225,-35.04524 l 26.00066,-26.10622 -126.46771,-0.15793 -126.46772,-0.15794 -3.43939,-1.61218 c -6.79482,-3.18501 -11.56248,-9.83395 -12.33222,-17.19838 -0.74369,-7.11531 2.98638,-15.03779 9.0227,-19.16377 6.24518,-4.26874 -3.26172,-3.98793 135.01735,-3.98793 h 124.69397 l -26.07726,-26.11321 c -27.69179,-27.72995 -28.03155,-28.13735 -29.09941,-34.89261 -1.40946,-8.9162 3.66926,-18.31634 12.02559,-22.25799 2.80687,-1.32398 4.16166,-1.56638 8.75471,-1.56638 9.30228,0 6.03921,-2.77104 57.74153,49.03489 43.68635,43.77389 45.72242,45.91172 46.96643,49.31347 1.3322,3.64294 1.7417,9.3383 0.91644,12.74598 -1.39194,5.74767 -2.41002,6.86037 -48.17163,52.64933 -50.43282,50.46295 -47.53719,48.00164 -56.84899,48.32222 -2.97772,0.10252 -5.67673,-0.14736 -7.03748,-0.65155 z"
   id="path116"
   inkscape:connector-curvature="0" /><path
   style="fill:#5f5fd3;stroke-width:0.60377359"
   d="m 102.24528,297.53889 c -1.38019,-0.25321 -3.689621,-1.05516 -5.132072,-1.78212 C 94.089008,294.23264 76.963224,277.39784 33.117675,232.8486 10.534128,209.90261 3.2451228,202.13655 2.2333449,199.94294 0.28315115,195.71479 0.36381923,187.96362 2.4014658,183.78868 3.5199563,181.497 11.073167,173.44534 33.758081,150.36279 63.200453,120.40434 88.59782,95.391044 94.472622,90.566414 c 4.548401,-3.735336 6.123788,-4.287169 12.239168,-4.287169 4.80323,0 5.80098,0.201758 9.06583,1.833227 4.35672,2.177075 7.55115,5.521878 9.7126,10.169786 1.31502,2.827772 1.57656,4.248422 1.56949,8.525292 -0.0148,8.98441 0.89654,7.84485 -35.853721,44.83019 l -19.047969,19.16981 110.78891,0.0313 c 60.93391,0.0172 118.01459,0.25751 126.84596,0.53399 14.06773,0.44041 16.38658,0.65173 18.71698,1.70566 4.25677,1.92515 7.51761,5.19658 9.87335,9.90542 1.87238,3.74266 2.14508,4.85027 2.14508,8.7123 0,8.26075 -4.02971,14.94515 -11.36748,18.85614 l -3.594,1.91559 -33.72681,2.2e-4 c -18.54974,1.2e-4 -75.47901,0.18087 -126.50947,0.40166 l -92.782676,0.40144 23.766448,24.20212 c 13.071548,13.31116 25.119788,25.89212 26.773868,27.95769 3.51666,4.39151 4.68168,8.49496 4.07277,14.34511 -1.22324,11.75226 -12.77757,19.9895 -24.91567,17.76273 z"
   id="path118"
   inkscape:connector-curvature="0" /><path
   style="fill:#6f6f91;stroke-width:0.60377359"
   d="m 399.69585,425.78658 c -0.001,-0.26866 -1.2094,-0.98486 -2.68479,-1.59157 -4.13267,-1.69941 -7.87524,-5.37317 -10.12095,-9.93485 -1.79093,-3.63791 -1.98642,-4.56213 -2.00465,-9.47765 -0.0111,-2.99567 0.13779,-5.58251 0.33087,-5.74855 0.19309,-0.16604 1.13054,-1.66038 2.0832,-3.32075 1.11337,-1.94045 10.86733,-12.20414 27.30461,-28.73152 l 25.57248,-25.71265 -46.65435,-0.40961 c -25.65989,-0.22529 -82.72358,-0.40163 -126.8082,-0.39187 l -80.15385,0.0178 -3.09487,-1.56829 c -3.94598,-1.99957 -8.29252,-6.35509 -10.20161,-10.22268 -1.25036,-2.53307 -1.49016,-3.89332 -1.49016,-8.45283 0,-4.59454 0.24308,-5.95224 1.57355,-8.78896 1.89046,-4.0307 7.70385,-10.10626 10.26404,-10.72692 5.0506,-1.22443 21.86098,-1.44307 133.27327,-1.73344 l 123.375,-0.32154 -25.60752,-25.74287 c -14.08413,-14.15858 -26.22127,-26.76174 -26.97141,-28.00703 -0.75015,-1.24528 -1.60491,-2.26415 -1.89948,-2.26415 -0.29458,0 -0.37919,-0.40754 -0.18805,-0.90566 0.19115,-0.49811 0.11469,-0.90688 -0.16989,-0.90838 -0.28459,-0.002 -0.59872,-1.83626 -0.69806,-4.07724 -0.36334,-8.19588 3.6987,-15.99866 10.42769,-20.03055 3.11664,-1.86744 4.03648,-2.10669 9.28538,-2.41509 7.04217,-0.41378 8.23606,0.10148 15.90117,6.86258 7.69495,6.78742 87.04863,86.69345 88.51047,89.12656 0.70808,1.17854 1.61197,4.10808 2.00866,6.5101 0.99593,6.0306 0.10697,9.76783 -3.50433,14.73242 -3.50744,4.82182 -85.60902,86.96498 -90.44841,90.49423 -1.99245,1.45305 -3.75849,2.79851 -3.92453,2.98992 -0.16604,0.19141 -3.01568,0.4207 -6.33255,0.50955 -3.31687,0.0888 -6.23762,0.28944 -6.49057,0.44576 -0.25294,0.15633 -0.46092,0.0644 -0.46216,-0.20422 z"
   id="path120"
   inkscape:connector-curvature="0" /><path
   style="fill:#6f6f91;stroke-width:0.60377359"
   d="M 99.018868,296.27166 C 96.004269,295.12291 93.033292,292.35647 66.794041,266.26538 34.198576,233.85398 5.4024605,204.25019 3.1287967,200.81445 1.9184705,198.98553 1.5511146,197.53584 1.3299773,193.71583 0.89588673,186.21717 1.6059667,184.57343 8.6794572,176.70285 16.719841,167.75641 77.03523,107.01168 87.799451,97.019658 98.26173,87.307913 99.414291,86.669159 106.56604,86.619138 c 4.76007,-0.03329 5.85638,0.169437 8.84015,1.634729 3.81134,1.871694 7.60078,5.642146 9.6363,9.587997 1.88707,3.658096 2.32208,11.519816 0.85062,15.372806 -1.62599,4.25758 -5.39142,8.41252 -30.641982,33.81167 l -23.476873,23.61502 118.829855,0.43426 c 65.35642,0.23883 122.69117,0.65451 127.41056,0.92372 9.96861,0.56864 12.43905,1.44207 16.48078,5.82684 7.46676,8.10047 7.66978,19.82652 0.47972,27.70808 -1.55988,1.7099 -4.45074,3.96948 -6.42414,5.02128 l -3.58798,1.91238 -92.29285,0.087 c -50.76106,0.0478 -107.59237,0.2516 -126.2918,0.45283 l -33.998952,0.36586 17.998955,18.42582 c 37.746347,38.64154 36.418537,36.98062 36.408147,45.54179 -0.007,5.56386 -1.64436,9.98544 -5.01188,13.53219 -5.8075,6.11658 -15.0913,8.31895 -22.755802,5.39828 z"
   id="path122"
   inkscape:connector-curvature="0" /><path
   style="fill:#5f5fd3;stroke-width:0.60377359"
   d="m 395.65965,423.39821 c -7.32423,-4.46445 -10.54888,-10.05847 -10.6107,-18.4071 -0.0611,-8.2578 -0.60023,-7.59052 35.34018,-43.74444 l 19.858,-19.97596 -36.37401,-0.4014 c -20.0057,-0.22076 -77.09477,-0.40139 -126.8646,-0.40139 h -90.49059 l -2.49768,-1.27422 c -3.56799,-1.82025 -8.80894,-6.98793 -10.52848,-10.38127 -1.9505,-3.84912 -2.11486,-12.57698 -0.31588,-16.77382 1.35722,-3.16627 6.73326,-9.25724 9.37761,-10.62468 3.36189,-1.73851 20.15423,-2.03566 139.92712,-2.47614 l 117.4995,-0.43213 -24.75802,-25.0566 c -13.61691,-13.78114 -25.80546,-26.44054 -27.08567,-28.13201 -5.40192,-7.13732 -4.23765,-17.40634 2.83018,-24.96242 1.44547,-1.54533 3.93347,-3.47655 5.52888,-4.2916 2.51488,-1.28478 3.7139,-1.4819 9.01389,-1.4819 6.09748,0 6.12224,0.006 9.66038,2.3554 4.21668,2.79993 90.31292,88.86008 93.08662,93.0476 3.81576,5.76075 3.84705,13.94511 0.0761,19.89135 -3.79454,5.98336 -87.13516,89.44447 -93.56285,93.69811 -2.30925,1.52819 -3.26712,1.74832 -8.79695,2.02161 l -6.20554,0.30669 z"
   id="path124"
   inkscape:connector-curvature="0" /><path
   style="fill:#5f5fd3;stroke-width:0.60377359"
   d="m 395.77358,423.28613 c -4.28065,-2.72061 -7.24933,-5.94206 -8.96739,-9.73092 -0.97233,-2.14429 -1.25151,-4.01767 -1.27134,-8.53112 -0.0251,-5.71304 0.003,-5.82593 2.28788,-9.27227 1.27231,-1.91885 13.54752,-14.96291 27.27825,-28.98681 l 24.96496,-25.498 -25.76882,-0.39877 c -14.17285,-0.21933 -71.22987,-0.39913 -126.79338,-0.39955 l -101.02456,-7.7e-4 -2.77684,-1.62733 c -3.50629,-2.05482 -8.72399,-7.32393 -10.19011,-10.2905 -0.87678,-1.77409 -1.12366,-3.65765 -1.12858,-8.61047 -0.006,-5.8732 0.11902,-6.55281 1.69699,-9.23732 2.28386,-3.88541 7.70689,-9.22184 9.84857,-9.69128 4.49258,-0.98476 48.02858,-1.56399 147.39154,-1.961 59.52453,-0.23784 108.22642,-0.55445 108.22642,-0.7036 0,-0.14915 -10.27035,-10.77056 -22.82299,-23.60314 -26.77936,-27.37656 -28.6254,-29.34557 -29.94881,-31.944 -3.59081,-7.05034 -1.6078,-16.30925 4.88321,-22.80026 4.23213,-4.23213 6.54508,-5.08688 13.80812,-5.10274 5.76068,-0.0126 6.22286,0.0825 9.0566,1.86416 4.35063,2.73531 92.70357,91.27347 94.52819,94.72635 1.22038,2.30945 1.43574,3.57733 1.43574,8.45283 0,4.74945 -0.22785,6.16225 -1.32492,8.21531 -0.72871,1.36369 -6.32665,7.7486 -12.43988,14.18868 -15.43915,16.26463 -78.0727,78.34581 -81.18513,80.46917 -2.96151,2.02039 -6.01502,2.72649 -11.91466,2.75519 -3.87754,0.0188 -4.52544,-0.16949 -7.84906,-2.28184 z"
   id="path126"
   inkscape:connector-curvature="0" /><path
   style="fill:#d7d7f4;stroke-width:0.60377359"
   d="m 101.30858,296.78436 c -1.5633,-0.43782 -4.008583,-1.58763 -5.433966,-2.55516 C 92.854762,292.17939 27.868208,227.33701 13.42697,211.96447 8.0268981,206.21616 3.1624213,200.65006 2.6170216,199.59538 1.9302106,198.26723 1.6075644,196.00704 1.56741,192.24266 c -0.094223,-8.83314 -2.40094105,-6.06384 44.760663,-53.737 37.420002,-37.82589 47.618656,-47.607912 52.090245,-49.962264 2.738412,-1.44181 3.839902,-1.659601 8.367612,-1.654479 4.18716,0.0047 5.80864,0.283155 8.23294,1.413654 3.41657,1.593211 8.19586,6.145535 9.63426,9.176716 1.438,3.030383 2.29653,8.579853 1.86351,12.045653 -0.78766,6.30422 -3.40414,9.33435 -39.231303,45.43355 l -15.729624,15.84906 31.693847,0.0202 c 74.45286,0.0474 215.49157,1.18121 220.01291,1.76872 5.75204,0.74742 9.122,2.54072 12.09751,6.43763 6.58669,8.62632 5.9314,20.14023 -1.56,27.41039 -1.3533,1.31333 -3.85721,3.17838 -5.56422,4.14454 l -3.10368,1.75666 -118.33963,0.39328 c -65.08679,0.21631 -121.910288,0.44759 -126.274436,0.51397 l -7.934823,0.12068 2.474361,2.71698 c 1.360899,1.49434 10.941971,11.41132 21.291266,22.03774 28.798542,29.56968 30.443632,31.62468 30.443632,38.02944 0,9.39033 -5.09422,17.04365 -13.26304,19.92578 -3.67782,1.29761 -9.00011,1.60283 -12.22083,0.70084 z"
   id="path128"
   inkscape:connector-curvature="0" /><path
   style="fill:#d7d7f4;stroke-width:0.60377359"
   d="m 396.37736,423.7812 c -7.62395,-4.85032 -10.57351,-9.5401 -11.02946,-17.53677 -0.35216,-6.17634 0.54114,-8.66888 4.96443,-13.85198 1.55867,-1.82641 13.30755,-13.99678 26.10863,-27.04526 12.80107,-13.04848 23.10205,-23.89713 22.89107,-24.10811 -0.21098,-0.21099 -57.32462,-0.50726 -126.9192,-0.6584 l -126.5356,-0.27478 -3.63397,-2.42667 c -4.37622,-2.92233 -8.60218,-8.10973 -9.49491,-11.65511 -0.88007,-3.49508 -0.78031,-10.30763 0.19076,-13.02641 1.07816,-3.01862 4.7484,-7.89795 7.69819,-10.23423 2.09215,-1.65702 3.13226,-1.99951 7.36235,-2.42432 6.38059,-0.64076 122.3305,-1.6707 194.96375,-1.73179 31.13207,-0.0262 56.60377,-0.22737 56.60377,-0.44709 0,-0.21972 -6.20207,-6.66179 -13.78238,-14.31573 -28.39922,-28.67505 -37.92313,-38.79081 -39.35102,-41.79644 -2.13391,-4.49175 -1.96175,-10.29567 0.45882,-15.46832 2.14776,-4.58966 6.29604,-9.04306 9.98228,-10.71653 3.78987,-1.72052 13.40441,-1.66328 16.90503,0.10063 1.69733,0.85526 17.72687,16.45734 48.24073,46.95429 51.1357,51.10738 48.78003,48.36337 48.78003,56.82144 0,6.79576 -1.21952,8.84926 -12.19119,20.5283 -16.34352,17.39724 -80.94028,81.19971 -84.06396,83.03031 -2.54903,1.49384 -3.65658,1.73374 -9.01762,1.95328 -6.02215,0.24662 -6.15588,0.22215 -9.13053,-1.67031 z"
   id="path130"
   inkscape:connector-curvature="0" /><path
   style="fill:#5f5fd3;stroke-width:0.60377359"
   d="M 99.661917,295.99503 C 96.28026,294.75083 79.825576,279.00139 42.609041,241.38741 12.077567,210.52988 3.2771464,201.02521 2.4154834,197.97736 1.380088,194.31498 1.676225,187.76944 3.0009876,185.03591 3.6553043,183.68578 7.0082391,179.4566 10.451954,175.63774 21.12693,163.79984 90.606152,94.497757 95.09434,91.211146 c 4.86787,-3.564645 8.766,-4.680916 14.11821,-4.042902 4.43471,0.528642 7.65743,2.110985 11.18671,5.492628 3.84526,3.684415 5.33205,7.186837 5.66763,13.351228 0.22865,4.20022 0.0708,5.34982 -1.05392,7.67307 -2.04846,4.23156 -8.73983,11.5409 -32.189489,35.16228 l -21.654907,21.81349 44.264776,0.36654 c 24.34561,0.2016 73.74401,0.53464 109.7742,0.74009 75.05202,0.42794 99.37333,0.92984 102.94339,2.12432 3.6035,1.20567 8.28946,6.16819 9.90715,10.49184 1.4703,3.92972 1.76234,9.49574 0.70438,13.42469 -1.30444,4.84433 -6.32005,10.42931 -12.12096,13.49693 -1.39556,0.738 -75.10209,1.27449 -235.656876,1.71528 -17.98374,0.0494 -18.574128,0.0881 -17.811321,1.16972 0.43392,0.61525 10.337123,11.00771 22.007119,23.09434 31.192828,32.30646 31.321308,32.46897 31.199508,39.46259 -0.14447,8.29491 -4.34755,15.0951 -11.36107,18.38121 -3.98109,1.86529 -11.49071,2.28903 -15.356953,0.86654 z"
   id="path132"
   inkscape:connector-curvature="0" /><path
   style="fill:#d7d7f4;stroke-width:0.60377359"
   d="m 399.78518,424.93323 c -4.60885,-0.94261 -11.54731,-7.6832 -13.02267,-12.6513 -1.4119,-4.75437 -1.25463,-11.63611 0.34125,-14.93277 0.82615,-1.70661 6.65314,-8.21078 16.15095,-18.02793 28.36695,-29.32077 36.35182,-37.78765 35.98364,-38.15584 -0.2036,-0.20359 -57.26957,-0.54849 -126.81328,-0.76644 l -126.44311,-0.39628 -3.03812,-1.94955 c -3.76865,-2.41834 -7.63857,-6.70523 -9.20638,-10.19835 -0.90153,-2.00864 -1.18568,-3.94939 -1.17283,-8.0104 0.02,-6.31331 1.07521,-9.02432 5.37341,-13.80495 4.4358,-4.93368 4.55666,-4.96536 21.00536,-5.5064 13.26814,-0.43643 177.39505,-1.71025 221.73585,-1.72093 10.37735,-0.002 18.86792,-0.21981 18.86792,-0.48292 0,-0.2631 -9.81875,-10.5197 -21.81945,-22.79245 -32.70808,-33.44954 -32.9243,-33.72612 -32.37434,-41.41246 0.50836,-7.10494 5.3351,-14.66592 11.18172,-17.51592 3.83759,-1.87068 13.02133,-1.9932 16.74792,-0.22345 3.18914,1.51452 91.48057,89.69827 94.83829,94.72263 2.28359,3.41707 2.36801,3.72279 2.33492,8.4551 -0.0455,6.50521 -1.20955,8.74696 -9.03606,17.40179 -6.29263,6.95861 -67.29823,67.91418 -80.09267,80.02699 -4.2417,4.01572 -7.84919,6.92267 -9.0566,7.29787 -2.51819,0.78255 -9.93721,1.16518 -12.48572,0.64396 z"
   id="path136"
   inkscape:connector-curvature="0" /></svg>