<?xml version="1.0" encoding="UTF-8" standalone="no"?>
<svg
   xmlns:dc="http://purl.org/dc/elements/1.1/"
   xmlns:cc="http://creativecommons.org/ns#"
   xmlns:rdf="http://www.w3.org/1999/02/22-rdf-syntax-ns#"
   xmlns:svg="http://www.w3.org/2000/svg"
   xmlns="http://www.w3.org/2000/svg"
   xmlns:xlink="http://www.w3.org/1999/xlink"
   xmlns:sodipodi="http://sodipodi.sourceforge.net/DTD/sodipodi-0.dtd"
   xmlns:inkscape="http://www.inkscape.org/namespaces/inkscape"
   height="80px"
   width="400px"
   version="1.1"
   y="0px"
   x="0px"
   preserveAspectRatio="none"
   viewBox="0 0 400 80"
   id="svg3876"
   sodipodi:docname="wsu-logo-wcs.svg"
   inkscape:version="0.92.3 (2405546, 2018-03-11)">
  <metadata
     id="metadata3880">
    <rdf:RDF>
      <cc:Work
         rdf:about="">
        <dc:format>image/svg+xml</dc:format>
        <dc:type
           rdf:resource="http://purl.org/dc/dcmitype/StillImage" />
        <dc:title></dc:title>
      </cc:Work>
    </rdf:RDF>
  </metadata>
  <sodipodi:namedview
     pagecolor="#ffffff"
     bordercolor="#666666"
     borderopacity="1"
     objecttolerance="10"
     gridtolerance="10"
     guidetolerance="10"
     inkscape:pageopacity="0"
     inkscape:pageshadow="2"
     inkscape:window-width="1920"
     inkscape:window-height="1017"
     id="namedview3878"
     showgrid="false"
     inkscape:zoom="2.20625"
     inkscape:cx="161.24969"
     inkscape:cy="43.492063"
     inkscape:window-x="-8"
     inkscape:window-y="-8"
     inkscape:window-maximized="1"
     inkscape:current-layer="layer1"
     inkscape:measure-start="0,0"
     inkscape:measure-end="0,0" />
  <defs
     id="defs3782">
    <g
       id="Layer0_0_MEMBER_0_FILL">
      <path
         d="m134.4 382.75q-0.1-1.3 1.1-1.4v-0.5h-8.05v0.5q0.8 0.1 1.45 1.75 0.45 1.25 2.45 7.95l4.85 16.2h0.75q7-14.6 7.75-16.8h0.05q1.4 3.65 7.45 16.8h0.8l4.85-16.25q1.95-6.6 2.45-7.9 0.65-1.6 1.4-1.75v-0.5h-7.5v0.5q1.15 0.1 1.05 1.4-0.05 1.05-1.35 5.65-1.3 4.3-2 7.4h-0.1q-0.95-2.55-3.05-7.35l-3.5-7.15h-0.7l-3.5 7.2q-2.45 5.55-3.15 7.45h-0.05q-1-3.95-2.1-7.7-1.25-4.45-1.35-5.5z"
         fill="#fff"
         id="path3713" />
    </g>
    <g
       id="Layer0_0_MEMBER_1_FILL">
      <path
         d="m163.4 380.85v0.5q0.95 0.1 1.15 1.8 0.15 1.4 0.15 8.15v4.45q0 7.25-0.15 8.75-0.25 1.75-1.25 1.85v0.5h15.35q0-3.2 0.1-5.6h-0.5q-0.15 0.8-0.9 1.1-0.6 0.25-1.95 0.3-2.4 0.1-5.05 0-0.45-0.05-0.55-0.25-0.1-0.15-0.1-0.7v-6.05h3.8q1.75 0 2.4 0.15 0.65 0.2 0.8 0.75h0.45v-5.7h-0.45q-0.2 0.5-0.85 0.65-0.55 0.1-2.4 0.1h-3.75v-6.7h4.4q1.75 0 2.6 0.35 0.9 0.35 1.05 1.25h0.5l0.1-5.65h-14.95z"
         fill="#fff"
         id="path3716" />
    </g>
    <g
       id="Layer0_0_MEMBER_2_FILL">
      <path
         d="m197.15 383.3q-1.2-1.35-3-1.9-1.8-0.6-4.4-0.6l-6.95 0.1v0.55q0.95 0.1 1.15 1.75 0.15 1.35 0.15 8.1v4.45q0 7.25-0.2 8.7-0.2 1.8-1.25 1.85v0.45l6.4 0.1q5.05 0 7.5-1.55 3.2-2.15 3.2-5.85 0-2.4-1.6-4.15-1.5-1.65-3.7-2v-0.05q1.8-0.4 3-1.95 1.2-1.6 1.2-3.65 0-2.6-1.5-4.35m-5.6 8q-0.95 0.3-1.9 0.3l-0.9-0.05v-6.65l1.4-0.1q1.65 0 2.65 0.9t1 2.4v0.05q0 2.3-2.25 3.15m-2.8 4.2l1.25-0.05q1.05 0 2.15 0.3 2.5 0.8 2.5 3.3 0 2.15-1.85 3.05-1.05 0.6-2.45 0.6-0.95 0-1.35-0.1-0.25-0.1-0.25-0.65v-6.45z"
         fill="#fff"
         id="path3719" />
    </g>
    <g
       id="Layer0_0_MEMBER_3_FILL">
      <path
         d="m203.4 380.85v0.5q1 0.1 1.2 1.8 0.15 1.4 0.15 8.15v4.45q0 7.25-0.15 8.75-0.25 1.75-1.25 1.85v0.5h15.3l0.1-5.6h-0.5q-0.15 0.8-0.85 1.1-0.6 0.25-1.95 0.3-2.45 0.1-5.05 0-0.45-0.05-0.55-0.25-0.1-0.15-0.1-0.7v-6.05h3.8q1.75 0 2.4 0.15 0.65 0.2 0.8 0.75h0.45v-5.7h-0.45q-0.2 0.5-0.85 0.65-0.55 0.1-2.4 0.1h-3.75v-6.7h4.35q1.8 0 2.65 0.35 0.9 0.35 1.05 1.25h0.45l0.15-5.65h-15z"
         fill="#fff"
         id="path3722" />
    </g>
    <g
       id="Layer0_0_MEMBER_4_FILL">
      <path
         d="m229.85 380.8l-7.1 0.1v0.5q1 0.05 1.2 1.75 0.15 1.4 0.15 8.15v4.45q0 7.25-0.15 8.75-0.2 1.75-1.2 1.85v0.5h7.4v-0.5q-0.9-0.1-1.1-1.55-0.2-1.25-0.2-6.65v-1.45l1.1 0.05 6.5 9.65q0.4 0.4 1.5 0.4h5.4v-0.45q-1-0.2-2.65-2.45l-6-8.1v-0.1q1.15-0.5 2-1.25 2.75-2.1 2.75-5.9 0-2.85-1.45-4.75-1.25-1.6-3.25-2.3-1.95-0.7-4.9-0.7m2.75 11.5q-1.05 0.75-2.65 0.75l-1.1-0.05v-8l1.5-0.1q1.95 0 3.05 1.05 1.05 1 1.05 2.8v0.05q0 2.45-1.85 3.5z"
         fill="#fff"
         id="path3725" />
    </g>
    <g
       id="Layer0_0_MEMBER_5_FILL">
      <path
         d="m260.7 390.45q-1.35-1.2-1.35-2.65 0-1.3 0.95-2.1 0.95-0.75 2.55-0.75 1.2 0 2.05 0.5 0.9 0.65 1.1 1.6h0.5l0.2-5.75q-1.55-0.55-4.1-0.55-3.9 0-6.2 2.15-2.2 2-2.2 5.15 0 3.8 3.6 6.55l2.85 2.2q1.9 1.5 1.9 3.15 0 1.4-1.05 2.2-1 0.75-2.65 0.75-1.75 0-2.95-0.6-1-0.7-1.3-1.95h-0.5l-0.2 5.85q2 0.95 5.25 0.95 3.95 0 6.35-2.1 2.3-2 2.3-5.2 0-3.75-3.8-6.75-2.9-2.3-3.3-2.65z"
         fill="#fff"
         id="path3728" />
    </g>
    <g
       id="Layer0_0_MEMBER_6_FILL">
      <path
         d="m269.95 386.65h0.5q0.2-0.95 0.85-1.35t1.9-0.4h4.5v10.85q0 7.25-0.2 8.7-0.2 1.75-1.35 1.9v0.5h8.1v-0.5q-1.15-0.05-1.4-1.8-0.2-1.5-0.2-8.8v-10.85h4.5q1.25 0 1.85 0.35 0.65 0.4 0.85 1.4h0.5v-5.8h-20.45l0.05 5.8z"
         fill="#fff"
         id="path3731" />
    </g>
    <g
       id="Layer0_0_MEMBER_7_FILL">
      <path
         d="m307.1 395.75l-6.35-15.3h-0.8l-6.5 15.25q-3 7-3.9 8.8-0.95 1.75-1.7 1.8v0.55h7.55v-0.55q-0.9-0.05-0.75-1.1 0.1-0.75 1.25-3.65h8.2q1.15 3 1.25 3.65 0.15 1.05-0.75 1.1v0.55h7.95v-0.55q-0.75-0.05-1.65-1.8-0.85-1.65-3.8-8.75m-7.05-5.35h0.05q0.5 1.7 2.55 7.2l0.05 0.1h-5.35l0.05-0.1q2.45-6.4 2.65-7.2z"
         fill="#fff"
         id="path3734" />
    </g>
    <g
       id="Layer0_0_MEMBER_8_FILL">
      <path
         d="m327.7 384.9q1.25 0 1.8 0.35 0.65 0.4 0.85 1.4h0.55v-5.8h-20.45v5.8h0.5q0.2-0.95 0.9-1.35 0.6-0.4 1.9-0.4h4.45v10.85q0 7.25-0.2 8.7-0.2 1.75-1.3 1.9v0.5h8.1v-0.5q-1.15-0.05-1.4-1.8-0.2-1.5-0.2-8.8v-10.85h4.5z"
         fill="#fff"
         id="path3737" />
    </g>
    <g
       id="Layer0_0_MEMBER_9_FILL">
      <path
         d="m333.45 380.85v0.5q1 0.1 1.2 1.8 0.15 1.4 0.15 8.15v4.45q0 7.25-0.15 8.75-0.25 1.75-1.25 1.85v0.5h15.3l0.1-5.6h-0.5q-0.15 0.8-0.85 1.1-0.6 0.25-1.95 0.3-2.45 0.1-5.05 0-0.45-0.05-0.55-0.25-0.1-0.15-0.1-0.7v-6.05h3.8q1.75 0 2.4 0.15 0.65 0.2 0.8 0.75h0.45v-5.7h-0.45q-0.2 0.5-0.85 0.65-0.55 0.1-2.4 0.1h-3.75v-6.7h4.35q1.75 0 2.6 0.35 0.9 0.35 1.05 1.25h0.5l0.15-5.65h-15z"
         fill="#fff"
         id="path3740" />
    </g>
    <g
       id="Layer0_0_MEMBER_10_FILL">
      <path
         d="m362.05 380.85v0.45q1 0.05 1.2 1.65 0.15 1.35 0.15 8v5.2q0 4.85 2.1 7.55 2.5 3.5 7.85 3.5 2.35 0 4.4-0.9 1.9-0.85 3.05-2.3 2.4-2.8 2.4-8.15v-4.9q0-6.65 0.15-8 0.2-1.6 1.15-1.7v-0.4h-5.75v0.4q1.1 0.1 1.3 1.7 0.15 1.25 0.15 8v4.9q0 4.35-1.75 6.3-1.8 2.15-5.05 2.15-3.4 0-5.2-2.25-1.65-2.1-1.65-6.05v-5.05q0-6.65 0.2-8 0.2-1.6 1.25-1.65v-0.45h-5.95z"
         fill="#fff"
         id="path3743" />
    </g>
    <g
       id="Layer0_0_MEMBER_11_FILL">
      <path
         d="m403.85 380.85v0.4q1.1 0.1 1.3 1.7 0.2 1.35 0.2 7.95v9.5h-0.1q-2.35-3-4.05-4.9l-12.6-14.9h-0.5v15.55q0 7.1-0.2 8.5-0.2 1.7-1.25 1.8v0.4h5.65v-0.45q-1-0.05-1.2-1.75-0.2-1.4-0.2-8.4v-8.8q2.2 2.75 4.3 5.15l12.45 14.55h0.5v-16.15q0-6.65 0.15-8 0.2-1.65 1.1-1.75v-0.4h-5.55z"
         fill="#fff"
         id="path3746" />
    </g>
    <g
       id="Layer0_0_MEMBER_12_FILL">
      <path
         d="m419.2 380.85h-5.85v0.45q1 0.1 1.25 1.7 0.15 1.3 0.15 7.95v5.2q0 7.1-0.2 8.5-0.2 1.65-1.25 1.75v0.45h6.05v-0.45q-1.1-0.1-1.3-1.75-0.2-1.4-0.2-8.5v-5.2q0-6.65 0.15-7.95 0.2-1.6 1.2-1.7v-0.45z"
         fill="#fff"
         id="path3749" />
    </g>
    <g
       id="Layer0_0_MEMBER_13_FILL">
      <path
         d="m420.9 381.3q0.8 0.1 1.65 1.65 0.8 1.55 3.45 8l6.7 16.2h0.5l6.6-16.2q2.75-6.6 3.45-8 0.85-1.55 1.6-1.65v-0.45h-5.75v0.45q1.1 0.05 0.75 1.55-0.3 1.15-2.7 7.2-2.85 7.1-4.1 10.65h-0.05q-0.8-2.45-4.05-10.65-2.45-6.05-2.75-7.2-0.35-1.5 0.85-1.55v-0.45h-6.15v0.45z"
         fill="#fff"
         id="path3752" />
    </g>
    <g
       id="Layer0_0_MEMBER_14_FILL">
      <path
         d="m446.8 380.85v0.45q0.9 0.05 1.1 1.65 0.15 1.35 0.15 8v5.2q0 7.1-0.15 8.5-0.2 1.7-1.15 1.75v0.45h13.85l0.1-4.15h-0.4q-0.15 0.9-0.85 1.2-0.55 0.25-1.85 0.25h-5.8q-0.45-0.05-0.55-0.15-0.1-0.15-0.1-0.65v-8.5h4.65q1.9 0 2.4 0.15 0.65 0.15 0.85 0.85h0.35v-4.45h-0.35q-0.2 0.55-0.9 0.75-0.55 0.1-2.45 0.1h-4.55v-8.75h5.2q1.85 0 2.5 0.3 0.8 0.3 0.9 1.3h0.4q0-2.15 0.15-4.25h-13.5z"
         fill="#fff"
         id="path3755" />
    </g>
    <g
       id="Layer0_0_MEMBER_15_FILL">
      <path
         d="m464.65 380.9v0.4q1 0.05 1.2 1.65 0.15 1.35 0.15 8v5.2q0 7.1-0.15 8.5-0.2 1.7-1.2 1.75v0.45h5.65v-0.45q-0.95-0.05-1.15-1.6-0.15-1.25-0.15-7.5v-1.4h1.7l7.35 10.45q0.5 0.5 1.15 0.5h3.75v-0.45q-1.1-0.15-2.8-2.4-4.6-6.15-6.35-8.6v-0.05q1.45-0.45 2.35-1.2 3.1-2.2 3.1-6.15 0-2.6-1.4-4.4-1.15-1.5-2.9-2.1-1.8-0.7-4.55-0.7l-5.75 0.1m4.35 2.6q0.7-0.1 1.75-0.1 2.5 0 3.9 1.3 1.4 1.25 1.4 3.45v0.05q0 3.15-2.5 4.5-1.45 0.8-3.25 0.8l-1.3-0.05v-9.95z"
         fill="#fff"
         id="path3758" />
    </g>
    <g
       id="Layer0_0_MEMBER_16_FILL">
      <path
         d="m484.15 387.45q0 1.95 0.9 3.5 0.85 1.4 2.7 2.85l3.25 2.55q2.15 1.8 2.15 4.05 0 1.85-1.4 3-1.3 1.1-3.35 1.1-1.85 0-2.85-0.65-1.05-0.65-1.25-1.95h-0.4l-0.2 4.4q2 0.85 4.7 0.85 3.75 0 5.95-2.1 2.05-1.9 2.05-4.8 0-2.2-1.1-3.9-0.9-1.35-2.85-2.85-2.55-1.95-3.45-2.85-1.6-1.45-1.6-3.4 0-1.75 1.25-2.85 1.25-1.05 3.2-1.05 1.15 0 2.05 0.45 0.85 0.6 1.05 1.7h0.4q0-0.05 0.15-4.25-1.5-0.55-3.7-0.55-3.45 0-5.6 2-2.05 1.9-2.05 4.75z"
         fill="#fff"
         id="path3761" />
    </g>
    <g
       id="Layer0_0_MEMBER_17_FILL">
      <path
         d="m505.8 380.85h-5.85v0.45q1 0.1 1.25 1.7 0.15 1.3 0.15 7.95v5.2q0 7.1-0.2 8.5-0.2 1.65-1.25 1.75v0.45h6.05v-0.45q-1.1-0.1-1.3-1.75-0.2-1.4-0.2-8.5v-5.2q0-6.65 0.15-7.95 0.2-1.6 1.2-1.7v-0.45z"
         fill="#fff"
         id="path3764" />
    </g>
    <g
       id="Layer0_0_MEMBER_18_FILL">
      <path
         d="m519.55 383.45h5.05q1.35 0 1.9 0.35 0.6 0.35 0.8 1.4h0.45v-4.35h-19.5v4.35h0.45q0.2-1.05 0.8-1.4 0.5-0.35 1.9-0.35h5.05v12.7q0 7.1-0.2 8.5-0.2 1.7-1.3 1.75v0.45h6.1v-0.45q-1.1-0.05-1.3-1.7-0.2-1.4-0.2-8.55v-12.7z"
         fill="#fff"
         id="path3767" />
    </g>
    <g
       id="Layer0_0_MEMBER_19_FILL">
      <path
         d="m544.45 380.85v0.45q1.05 0.05 0.7 1.25-0.3 1-2.45 5.1l-2.95 5.7h-0.05l-2.95-5.75q-2.15-4.2-2.4-5.05-0.35-1.2 0.7-1.25v-0.45h-6v0.45q0.75 0.05 1.7 1.65 0.65 1.05 4.4 8.1l2.9 5.5v0.95q0 6.05-0.2 7.3-0.2 1.55-1.25 1.6v0.45h6.1v-0.45q-1.1-0.05-1.35-1.6-0.15-1.15-0.15-7.35v-1.15l2.8-5.25q3.85-7.1 4.5-8.1 0.95-1.6 1.6-1.65v-0.45h-5.65z"
         fill="#fff"
         id="path3770" />
    </g>
    <g
       id="Layer0_1_MEMBER_0_MEMBER_0_FILL">
      <path
         d="m58.9 364.9v17.9q0 21.05 11.7 36.35 5.85 7.65 11.7 11.1 5.85-3.25 11.7-10.8 11.7-15.1 11.65-36.7v-17.85h-46.75z"
         fill="#4F3868"
         id="path3773" />
    </g>
    <g
       id="Layer0_1_MEMBER_0_MEMBER_1_FILL">
      <path
         d="m58 364.05v18.75q0 21.15 11.85 36.7 5.9 7.85 12 11.5l0.4 0.25 0.45-0.2q6.1-3.45 12.05-11.2 11.85-15.45 11.8-37.2v-18.6h-48.55m1.8 18.75v-17h44.95v16.95q0.05 11.9-3.7 22.1-2.85 7.75-7.7 14-5.2 6.7-11.05 10.35-5.9-3.85-11.05-10.65-4.8-6.35-7.65-14.05-3.8-10.1-3.8-21.7z"
         fill="#fff"
         id="path3776" />
    </g>
    <g
       id="Layer0_1_MEMBER_1_FILL">
      <path
         d="m72.7 381.05q-5.05 4.45-5.2 9.95-0.05 3 1.75 7.5 6 14.45 6.05 14.55l0.2 0.6h1.5l0.3-0.2 4.5-14.95 6.1 15.15h1.45l0.3-0.2 6.4-18.35q1.85-4.8 0.35-8.4-0.5-1.3-3.75-5.55-2.05-2.7-2.6-4.8l-0.15-1.55-1 1.9q-1.1 2.25-1.65 3.85-0.65 2 0.15 4.45 0.4 1.25 0.9 2.05l3.65 5.25q0.9 1.4-0.5 4.5-0.7 1.55-1.6 2.8l-7.5-17.5q-1.9-4.45-1.75-7.55l0.55-2.25q-4.15 4.35-4.9 8.15-0.5 2.5 0.45 5.45l3.1 7.7-2.4 6.25-4.85-11.5q-1.05-2.7-0.55-5.3l0.7-2z"
         fill="#fff"
         id="path3779" />
    </g>
  </defs>
  <g
     inkscape:groupmode="layer"
     id="layer1"
     inkscape:label="Background" />
  <g
     inkscape:groupmode="layer"
     id="layer4"
     inkscape:label="WCS Text">
    <text
       xml:space="preserve"
       style="font-style:normal;font-weight:normal;font-size:21.33333397px;line-height:1.25;font-family:sans-serif;letter-spacing:0px;word-spacing:0px;fill:#f9f9f9;fill-opacity:1;stroke:none"
       x="221.1898"
       y="74.107643"
       id="text3902"><tspan
         sodipodi:role="line"
         id="tspan3900"
         x="221.1898"
         y="74.107643">CS Scholarships</tspan></text>
  </g>
  <g
     transform="matrix(.80339 0 0 .80339 -44.35 -275.85)"
     id="g3786">
    <use
       xlink:href="#Layer0_0_MEMBER_0_FILL"
       id="use3784" />
  </g>
  <g
     transform="matrix(.80339 0 0 .80339 -44.35 -275.85)"
     id="g3790">
    <use
       xlink:href="#Layer0_0_MEMBER_1_FILL"
       id="use3788" />
  </g>
  <g
     transform="matrix(.80339 0 0 .80339 -44.35 -275.85)"
     id="g3794">
    <use
       xlink:href="#Layer0_0_MEMBER_2_FILL"
       id="use3792" />
  </g>
  <g
     transform="matrix(.80339 0 0 .80339 -44.35 -275.85)"
     id="g3798">
    <use
       xlink:href="#Layer0_0_MEMBER_3_FILL"
       id="use3796" />
  </g>
  <g
     transform="matrix(.80339 0 0 .80339 -44.35 -275.85)"
     id="g3802">
    <use
       xlink:href="#Layer0_0_MEMBER_4_FILL"
       id="use3800" />
  </g>
  <g
     transform="matrix(.80339 0 0 .80339 -44.35 -275.85)"
     id="g3806">
    <use
       xlink:href="#Layer0_0_MEMBER_5_FILL"
       id="use3804" />
  </g>
  <g
     transform="matrix(.80339 0 0 .80339 -44.35 -275.85)"
     id="g3810">
    <use
       xlink:href="#Layer0_0_MEMBER_6_FILL"
       id="use3808" />
  </g>
  <g
     transform="matrix(.80339 0 0 .80339 -44.35 -275.85)"
     id="g3814">
    <use
       xlink:href="#Layer0_0_MEMBER_7_FILL"
       id="use3812" />
  </g>
  <g
     transform="matrix(.80339 0 0 .80339 -44.35 -275.85)"
     id="g3818">
    <use
       xlink:href="#Layer0_0_MEMBER_8_FILL"
       id="use3816" />
  </g>
  <g
     transform="matrix(.80339 0 0 .80339 -44.35 -275.85)"
     id="g3822">
    <use
       xlink:href="#Layer0_0_MEMBER_9_FILL"
       id="use3820" />
  </g>
  <g
     transform="matrix(.80339 0 0 .80339 -44.35 -275.85)"
     id="g3826">
    <use
       xlink:href="#Layer0_0_MEMBER_10_FILL"
       id="use3824" />
  </g>
  <g
     transform="matrix(.80339 0 0 .80339 -44.35 -275.85)"
     id="g3830">
    <use
       xlink:href="#Layer0_0_MEMBER_11_FILL"
       id="use3828" />
  </g>
  <g
     transform="matrix(.80339 0 0 .80339 -44.35 -275.85)"
     id="g3834">
    <use
       xlink:href="#Layer0_0_MEMBER_12_FILL"
       id="use3832" />
  </g>
  <g
     transform="matrix(.80339 0 0 .80339 -44.35 -275.85)"
     id="g3838">
    <use
       xlink:href="#Layer0_0_MEMBER_13_FILL"
       id="use3836" />
  </g>
  <g
     transform="matrix(.80339 0 0 .80339 -44.35 -275.85)"
     id="g3842">
    <use
       xlink:href="#Layer0_0_MEMBER_14_FILL"
       id="use3840" />
  </g>
  <g
     transform="matrix(.80339 0 0 .80339 -44.35 -275.85)"
     id="g3846">
    <use
       xlink:href="#Layer0_0_MEMBER_15_FILL"
       id="use3844" />
  </g>
  <g
     transform="matrix(.80339 0 0 .80339 -44.35 -275.85)"
     id="g3850">
    <use
       xlink:href="#Layer0_0_MEMBER_16_FILL"
       id="use3848" />
  </g>
  <g
     transform="matrix(.80339 0 0 .80339 -44.35 -275.85)"
     id="g3854">
    <use
       xlink:href="#Layer0_0_MEMBER_17_FILL"
       id="use3852" />
  </g>
  <g
     transform="matrix(.80339 0 0 .80339 -44.35 -275.85)"
     id="g3858">
    <use
       xlink:href="#Layer0_0_MEMBER_18_FILL"
       id="use3856" />
  </g>
  <g
     transform="matrix(.80339 0 0 .80339 -44.35 -275.85)"
     id="g3862">
    <use
       xlink:href="#Layer0_0_MEMBER_19_FILL"
       id="use3860" />
  </g>
  <g
     transform="matrix(.80339 0 0 .80339 -44.35 -275.85)"
     id="g3866">
    <use
       xlink:href="#Layer0_1_MEMBER_0_MEMBER_0_FILL"
       id="use3864" />
  </g>
  <g
     transform="matrix(.80339 0 0 .80339 -44.35 -275.85)"
     id="g3870">
    <use
       xlink:href="#Layer0_1_MEMBER_0_MEMBER_1_FILL"
       id="use3868" />
  </g>
  <g
     transform="matrix(.80339 0 0 .80339 -44.35 -275.85)"
     id="g3874">
    <use
       xlink:href="#Layer0_1_MEMBER_1_FILL"
       id="use3872" />
  </g>
</svg>
